<svg xmlns="http://www.w3.org/2000/svg" xmlns:xlink="http://www.w3.org/1999/xlink" contentStyleType="text/css" height="1359px" preserveAspectRatio="none" style="width:1614px;height:1359px;background:#FFFFFF;" version="1.1" viewBox="0 0 1614 1359" width="1614px" zoomAndPan="magnify"><defs/><g><ellipse cx="998.778" cy="20" fill="#222222" rx="10" ry="10" style="stroke:#222222;stroke-width:1.0;"/><rect fill="#F1F1F1" height="35.9609" rx="12.5" ry="12.5" style="stroke:#181818;stroke-width:0.5;" width="238.0742" x="879.7408" y="102.6533"/><text fill="#000000" font-family="sans-serif" font-size="12" lengthAdjust="spacing" textLength="218.0742" x="889.7408" y="125.6025">ReportFgService.assignCOLineToIONs()</text><polygon fill="#F1F1F1" points="931.2177,158.6143,1066.3383,158.6143,1078.3383,170.6143,1066.3383,182.6143,931.2177,182.6143,919.2177,170.6143,931.2177,158.6143" style="stroke:#181818;stroke-width:0.5;"/><text fill="#FF0000" font-family="sans-serif" font-size="11" lengthAdjust="spacing" textLength="77.6445" x="931.2177" y="175.1689">reportedIONList</text><text fill="#000000" font-family="sans-serif" font-size="11" lengthAdjust="spacing" textLength="54.4199" x="1011.9183" y="175.1689">not empty?</text><text fill="#000000" font-family="sans-serif" font-size="11" lengthAdjust="spacing" textLength="17.1177" x="902.1" y="167.8535">yes</text><text fill="#000000" font-family="sans-serif" font-size="11" lengthAdjust="spacing" textLength="12.2354" x="1078.3383" y="167.8535">no</text><rect fill="#F1F1F1" height="35.9609" rx="12.5" ry="12.5" style="stroke:#181818;stroke-width:0.5;" width="467.1992" x="373.3977" y="240.6143"/><text fill="#000000" font-family="sans-serif" font-size="12" lengthAdjust="spacing" textLength="145.752" x="383.3977" y="263.5635">m3ColineReported = find in</text><text fill="#000000" font-family="sans-serif" font-size="12" font-weight="bold" lengthAdjust="spacing" textLength="77.3496" x="535.8176" y="263.5635">m3coLineList</text><text fill="#000000" font-family="sans-serif" font-size="12" lengthAdjust="spacing" textLength="26.0215" x="616.5012" y="263.5635">have</text><text fill="#000000" font-family="sans-serif" font-size="12" font-weight="bold" lengthAdjust="spacing" textLength="18" x="645.8567" y="263.5635">CO</text><text fill="#000000" font-family="sans-serif" font-size="12" lengthAdjust="spacing" textLength="8.0039" x="667.1907" y="263.5635">&amp;</text><text fill="#000000" font-family="sans-serif" font-size="12" font-weight="bold" lengthAdjust="spacing" textLength="36.668" x="678.5286" y="263.5635">Coline</text><text fill="#000000" font-family="sans-serif" font-size="12" lengthAdjust="spacing" textLength="112.0664" x="718.5305" y="263.5635">equal to reportedION</text><polygon fill="#F1F1F1" points="539.1335,296.5752,674.8611,296.5752,686.8611,308.5752,674.8611,320.5752,539.1335,320.5752,527.1335,308.5752,539.1335,296.5752" style="stroke:#181818;stroke-width:0.5;"/><text fill="#000000" font-family="sans-serif" font-size="11" lengthAdjust="spacing" textLength="135.7275" x="539.1335" y="313.1299">m3ColineReported is empty</text><text fill="#000000" font-family="sans-serif" font-size="11" lengthAdjust="spacing" textLength="17.1177" x="510.0159" y="305.8145">yes</text><text fill="#000000" font-family="sans-serif" font-size="11" lengthAdjust="spacing" textLength="12.2354" x="686.8611" y="305.8145">no</text><path d="M38,330.5752 L38,392.4482 A0,0 0 0 0 38,392.4482 L314.0488,392.4482 A0,0 0 0 0 314.0488,392.4482 L314.0488,365.5117 L334.0488,361.5117 L314.0488,357.5117 L314.0488,340.5752 L304.0488,330.5752 L38,330.5752 A0,0 0 0 0 38,330.5752 " fill="#FEFFDD" style="stroke:#181818;stroke-width:0.5;"/><path d="M304.0488,330.5752 L304.0488,340.5752 L314.0488,340.5752 L304.0488,330.5752 " fill="#FEFFDD" style="stroke:#181818;stroke-width:0.5;"/><text fill="#000000" font-family="sans-serif" font-size="13" lengthAdjust="spacing" textLength="177.0361" x="44" y="349.6035">No CO line is found in M3 data</text><text fill="#000000" font-family="sans-serif" font-size="13" lengthAdjust="spacing" textLength="244.9814" x="44" y="366.8945">for already reported CO: {} and CO Line: {}</text><text fill="#000000" font-family="sans-serif" font-size="13" lengthAdjust="spacing" textLength="255.0488" x="44" y="384.1855">and Customer Order#: &lt;customerOrderNo&gt;.</text><rect fill="#FFC0CB" height="35.9609" rx="12.5" ry="12.5" style="stroke:#181818;stroke-width:0.5;" width="112.6953" x="334.0488" y="343.5313"/><text fill="#000000" font-family="sans-serif" font-size="12" lengthAdjust="spacing" textLength="92.6953" x="344.0488" y="366.4805">return error result</text><rect fill="#F1F1F1" height="35.9609" rx="12.5" ry="12.5" style="stroke:#181818;stroke-width:0.5;" width="241.7656" x="702.7153" y="330.5752"/><text fill="#000000" font-family="sans-serif" font-size="12" lengthAdjust="spacing" textLength="221.7656" x="712.7153" y="353.5244">reportedQty = reportedION.m3FgQuantity</text><polygon fill="#F1F1F1" points="622.123,445.5361,1025.0732,445.5361,1037.0732,457.5361,1025.0732,469.5361,622.123,469.5361,610.123,457.5361,622.123,445.5361" style="stroke:#181818;stroke-width:0.5;"/><text fill="#000000" font-family="sans-serif" font-size="11" lengthAdjust="spacing" textLength="402.9502" x="622.123" y="462.0908">reportedQty &gt; 0 &amp;&amp; m3coLine.orderedQuantity &gt; m3coLine.consumptionQuantity ?</text><text fill="#000000" font-family="sans-serif" font-size="11" lengthAdjust="spacing" textLength="17.1177" x="593.0054" y="454.7754">yes</text><text fill="#000000" font-family="sans-serif" font-size="11" lengthAdjust="spacing" textLength="12.2354" x="1037.0732" y="454.7754">no</text><rect fill="#F1F1F1" height="35.9609" rx="12.5" ry="12.5" style="stroke:#181818;stroke-width:0.5;" width="198.7578" x="500.7441" y="479.5361"/><text fill="#000000" font-family="sans-serif" font-size="12" lengthAdjust="spacing" textLength="178.7578" x="510.7441" y="502.4854">tempReportedQty += reportedQty</text><rect fill="#F1F1F1" height="35.9609" rx="12.5" ry="12.5" style="stroke:#181818;stroke-width:0.5;" width="455.5684" x="819.2891" y="479.5361"/><text fill="#000000" font-family="sans-serif" font-size="12" lengthAdjust="spacing" textLength="435.5684" x="829.2891" y="502.4854">tempReportedQty += m3coLine.orderedQuantity - m3coLine.consumptionQuantity</text><polygon fill="#F1F1F1" points="823.5981,521.4971,835.5981,533.4971,823.5981,545.4971,811.5981,533.4971,823.5981,521.4971" style="stroke:#181818;stroke-width:0.5;"/><rect fill="#90EE90" height="35.9609" rx="12.5" ry="12.5" style="stroke:#181818;stroke-width:0.5;" width="303.4883" x="671.854" y="580.4971"/><text fill="#000000" font-family="sans-serif" font-size="12" lengthAdjust="spacing" textLength="283.4883" x="681.854" y="603.4463">m3coLine.consumptionQuantity += tempReportedQty</text><rect fill="#F1F1F1" height="35.9609" rx="12.5" ry="12.5" style="stroke:#181818;stroke-width:0.5;" width="195.7461" x="725.7251" y="636.458"/><text fill="#000000" font-family="sans-serif" font-size="12" lengthAdjust="spacing" textLength="175.7461" x="735.7251" y="659.4072">reportedQty -= tempReportedQty</text><polygon fill="#F1F1F1" points="643.2341,401.5361,1003.9622,401.5361,1015.9622,413.5361,1003.9622,425.5361,643.2341,425.5361,631.2341,413.5361,643.2341,401.5361" style="stroke:#181818;stroke-width:0.5;"/><text fill="#000000" font-family="sans-serif" font-size="11" lengthAdjust="spacing" textLength="188.3267" x="643.2341" y="418.0908">m3coLine in reportedIONList that have</text><text fill="#000000" font-family="sans-serif" font-size="11" font-weight="bold" lengthAdjust="spacing" textLength="16.5" x="834.6169" y="418.0908">CO</text><text fill="#000000" font-family="sans-serif" font-size="11" lengthAdjust="spacing" textLength="7.3369" x="854.1731" y="418.0908">&amp;</text><text fill="#000000" font-family="sans-serif" font-size="11" font-weight="bold" lengthAdjust="spacing" textLength="33.6123" x="864.5662" y="418.0908">Coline</text><text fill="#000000" font-family="sans-serif" font-size="11" lengthAdjust="spacing" textLength="102.7275" x="901.2346" y="418.0908">equal to reportedION</text><polygon fill="#F1F1F1" points="512.8528,192.6143,701.1418,192.6143,713.1418,204.6143,701.1418,216.6143,512.8528,216.6143,500.8528,204.6143,512.8528,192.6143" style="stroke:#181818;stroke-width:0.5;"/><text fill="#000000" font-family="sans-serif" font-size="11" font-weight="bold" lengthAdjust="spacing" textLength="23.2139" x="512.8528" y="209.1689">loop</text><text fill="#000000" font-family="sans-serif" font-size="11" lengthAdjust="spacing" textLength="162.019" x="539.1228" y="209.1689">reportedION in reportedIONList ?</text><rect fill="#F1F1F1" height="35.9609" rx="12.5" ry="12.5" style="stroke:#181818;stroke-width:0.5;" width="103.4023" x="1338.8574" y="192.6143"/><text fill="#000000" font-family="sans-serif" font-size="12" lengthAdjust="spacing" textLength="83.4023" x="1348.8574" y="215.5635">do nothing here</text><polygon fill="#F1F1F1" points="998.778,722.4189,1010.778,734.4189,998.778,746.4189,986.778,734.4189,998.778,722.4189" style="stroke:#181818;stroke-width:0.5;"/><rect fill="#F1F1F1" height="35.9609" rx="12.5" ry="12.5" style="stroke:#181818;stroke-width:0.5;" width="377.1699" x="810.193" y="810.4189"/><text fill="#000000" font-family="sans-serif" font-size="12" lengthAdjust="spacing" textLength="357.1699" x="820.193" y="833.3682">fgReportQTY = availableION.quantity - availableION.reportQuantity</text><path d="M522.5844,900.3799 L522.5844,944.9619 L781.6532,944.9619 L781.6532,910.3799 L771.6532,900.3799 L522.5844,900.3799 " fill="#FEFFDD" style="stroke:#181818;stroke-width:0.5;"/><path d="M771.6532,900.3799 L771.6532,910.3799 L781.6532,910.3799 L771.6532,900.3799 " fill="#FEFFDD" style="stroke:#181818;stroke-width:0.5;"/><text fill="#000000" font-family="sans-serif" font-size="13" lengthAdjust="spacing" textLength="238.0688" x="528.5844" y="919.4082">check if there is ion 's quantity need to be</text><text fill="#000000" font-family="sans-serif" font-size="13" lengthAdjust="spacing" textLength="164.0425" x="528.5844" y="936.6992">assigned by another CO line</text><rect fill="#F1F1F1" height="35.9609" rx="12.5" ry="12.5" style="stroke:#181818;stroke-width:0.5;" width="589.8945" x="703.8307" y="994.2773"/><text fill="#000000" font-family="sans-serif" font-size="12" lengthAdjust="spacing" textLength="108.3691" x="713.8307" y="1017.2266">tempFGReportQty =</text><text fill="#000000" font-family="sans-serif" font-size="12" font-weight="bold" lengthAdjust="spacing" textLength="52.6641" x="825.5338" y="1017.2266">Math.min</text><text fill="#000000" font-family="sans-serif" font-size="12" lengthAdjust="spacing" textLength="405.5273" x="878.1979" y="1017.2266">(m3coLine.orderedQuantity - m3coLine.consumptionQuantity, fgReportQTY)</text><rect fill="#F1F1F1" height="35.9609" rx="12.5" ry="12.5" style="stroke:#181818;stroke-width:0.5;" width="206.3926" x="895.5817" y="1065.2383"/><text fill="#000000" font-family="sans-serif" font-size="12" lengthAdjust="spacing" textLength="186.3926" x="905.5817" y="1088.1875">fgReportQTY -= tempFGReportQty</text><polygon fill="#F1F1F1" points="793.6532,944.9619,1203.9027,944.9619,1215.9027,956.9619,1203.9027,968.9619,793.6532,968.9619,781.6532,956.9619,793.6532,944.9619" style="stroke:#181818;stroke-width:0.5;"/><text fill="#000000" font-family="sans-serif" font-size="11" lengthAdjust="spacing" textLength="17.1177" x="1002.778" y="980.832">yes</text><text fill="#000000" font-family="sans-serif" font-size="11" font-weight="bold" lengthAdjust="spacing" textLength="87.0923" x="793.6532" y="961.5166">fgReportQTY &gt; 0</text><text fill="#000000" font-family="sans-serif" font-size="11" lengthAdjust="spacing" textLength="320.1011" x="883.8016" y="961.5166">&amp;&amp; m3coLine.orderedQuantity &gt; m3coLine.consumptionQuantity?</text><polygon fill="#F1F1F1" points="998.778,1121.1992,1010.778,1133.1992,998.778,1145.1992,986.778,1133.1992,998.778,1121.1992" style="stroke:#181818;stroke-width:0.5;"/><polygon fill="#F1F1F1" points="928.7711,866.3799,1068.7848,866.3799,1080.7848,878.3799,1068.7848,890.3799,928.7711,890.3799,916.7711,878.3799,928.7711,866.3799" style="stroke:#181818;stroke-width:0.5;"/><text fill="#000000" font-family="sans-serif" font-size="11" lengthAdjust="spacing" textLength="140.0137" x="928.7711" y="882.9346">m3coLine in reportedIONList</text><path d="M1075.1256,1236.5146 L1075.1256,1254.8057 L1055.1256,1258.8057 L1075.1256,1262.8057 L1075.1256,1281.0967 A0,0 0 0 0 1075.1256,1281.0967 L1560.0314,1281.0967 A0,0 0 0 0 1560.0314,1281.0967 L1560.0314,1246.5146 L1550.0314,1236.5146 L1075.1256,1236.5146 A0,0 0 0 0 1075.1256,1236.5146 " fill="#FEFFDD" style="stroke:#181818;stroke-width:0.5;"/><path d="M1550.0314,1236.5146 L1550.0314,1246.5146 L1560.0314,1246.5146 L1550.0314,1236.5146 " fill="#FEFFDD" style="stroke:#181818;stroke-width:0.5;"/><text fill="#000000" font-family="sans-serif" font-size="13" lengthAdjust="spacing" textLength="382.2114" x="1081.1256" y="1255.543">No enough FG qty(Preallocation/ Allocation/ Picklist) in M3 for CO:</text><text fill="#000000" font-family="sans-serif" font-size="13" lengthAdjust="spacing" textLength="463.9058" x="1081.1256" y="1272.834">&lt;co&gt; and CO line: &lt;coLine&gt; and Customer Order#: &lt;customerOrderNo&gt; in GPL.</text><rect fill="#FFC0CB" height="35.9609" rx="12.5" ry="12.5" style="stroke:#181818;stroke-width:0.5;" width="112.6953" x="942.4303" y="1240.8252"/><text fill="#000000" font-family="sans-serif" font-size="12" lengthAdjust="spacing" textLength="92.6953" x="952.4303" y="1263.7744">return error result</text><polygon fill="#F1F1F1" points="947.578,1187.1992,1049.9779,1187.1992,1061.9779,1199.1992,1049.9779,1211.1992,947.578,1211.1992,935.578,1199.1992,947.578,1187.1992" style="stroke:#181818;stroke-width:0.5;"/><text fill="#000000" font-family="sans-serif" font-size="11" lengthAdjust="spacing" textLength="17.1177" x="1002.778" y="1223.0693">yes</text><text fill="#000000" font-family="sans-serif" font-size="11" lengthAdjust="spacing" textLength="102.3999" x="947.578" y="1203.7539">fgReportQTY still &gt; 0</text><polygon fill="#F1F1F1" points="998.778,1301.0967,1010.778,1313.0967,998.778,1325.0967,986.778,1313.0967,998.778,1301.0967" style="stroke:#181818;stroke-width:0.5;"/><polygon fill="#F1F1F1" points="917.1561,766.4189,1080.3998,766.4189,1092.3998,778.4189,1080.3998,790.4189,917.1561,790.4189,905.1561,778.4189,917.1561,766.4189" style="stroke:#181818;stroke-width:0.5;"/><text fill="#000000" font-family="sans-serif" font-size="11" lengthAdjust="spacing" textLength="163.2437" x="917.1561" y="782.9736">availableION in availableIONsList</text><ellipse cx="646.8307" cy="821.4189" fill="none" rx="11" ry="11" style="stroke:#222222;stroke-width:1.0;"/><ellipse cx="646.8307" cy="821.4189" fill="#222222" rx="6" ry="6" style="stroke:#222222;stroke-width:1.0;"/><line style="stroke:#181818;stroke-width:1.0;" x1="998.778" x2="998.778" y1="30" y2="102.6533"/><polygon fill="#181818" points="994.778,92.6533,998.778,102.6533,1002.778,92.6533,998.778,96.6533" style="stroke:#181818;stroke-width:1.0;"/><text fill="#000000" font-family="sans-serif" font-size="11" lengthAdjust="spacing" textLength="67.8691" x="1002.778" y="53.1309">m3coLineList,</text><text fill="#000000" font-family="sans-serif" font-size="11" lengthAdjust="spacing" textLength="85.5938" x="1002.778" y="67.7617">availableIONsList</text><text fill="#FF0000" font-family="sans-serif" font-size="11" lengthAdjust="spacing" textLength="77.6445" x="1002.778" y="82.3926">reportedIONList</text><line style="stroke:#181818;stroke-width:1.0;" x1="610.123" x2="600.123" y1="457.5361" y2="457.5361"/><line style="stroke:#181818;stroke-width:1.0;" x1="600.123" x2="600.123" y1="457.5361" y2="479.5361"/><polygon fill="#181818" points="596.123,469.5361,600.123,479.5361,604.123,469.5361,600.123,473.5361" style="stroke:#181818;stroke-width:1.0;"/><line style="stroke:#181818;stroke-width:1.0;" x1="1037.0732" x2="1047.0732" y1="457.5361" y2="457.5361"/><line style="stroke:#181818;stroke-width:1.0;" x1="1047.0732" x2="1047.0732" y1="457.5361" y2="479.5361"/><polygon fill="#181818" points="1043.0732,469.5361,1047.0732,479.5361,1051.0732,469.5361,1047.0732,473.5361" style="stroke:#181818;stroke-width:1.0;"/><line style="stroke:#181818;stroke-width:1.0;" x1="600.123" x2="600.123" y1="515.4971" y2="533.4971"/><line style="stroke:#181818;stroke-width:1.0;" x1="600.123" x2="811.5981" y1="533.4971" y2="533.4971"/><polygon fill="#181818" points="801.5981,529.4971,811.5981,533.4971,801.5981,537.4971,805.5981,533.4971" style="stroke:#181818;stroke-width:1.0;"/><line style="stroke:#181818;stroke-width:1.0;" x1="1047.0732" x2="1047.0732" y1="515.4971" y2="533.4971"/><line style="stroke:#181818;stroke-width:1.0;" x1="1047.0732" x2="835.5981" y1="533.4971" y2="533.4971"/><polygon fill="#181818" points="845.5981,529.4971,835.5981,533.4971,845.5981,537.4971,841.5981,533.4971" style="stroke:#181818;stroke-width:1.0;"/><line style="stroke:#181818;stroke-width:1.0;" x1="823.5981" x2="823.5981" y1="545.4971" y2="580.4971"/><polygon fill="#181818" points="819.5981,570.4971,823.5981,580.4971,827.5981,570.4971,823.5981,574.4971" style="stroke:#181818;stroke-width:1.0;"/><line style="stroke:#181818;stroke-width:1.0;" x1="823.5981" x2="823.5981" y1="616.458" y2="636.458"/><polygon fill="#181818" points="819.5981,626.458,823.5981,636.458,827.5981,626.458,823.5981,630.458" style="stroke:#181818;stroke-width:1.0;"/><line style="stroke:#181818;stroke-width:1.0;" x1="823.5981" x2="823.5981" y1="425.5361" y2="445.5361"/><polygon fill="#181818" points="819.5981,435.5361,823.5981,445.5361,827.5981,435.5361,823.5981,439.5361" style="stroke:#181818;stroke-width:1.0;"/><line style="stroke:#181818;stroke-width:1.0;" x1="823.5981" x2="823.5981" y1="672.4189" y2="682.4189"/><line style="stroke:#181818;stroke-width:1.0;" x1="823.5981" x2="1296.8574" y1="682.4189" y2="682.4189"/><polygon fill="#181818" points="1292.8574,564.4775,1296.8574,554.4775,1300.8574,564.4775,1296.8574,560.4775" style="stroke:#181818;stroke-width:1.0;"/><line style="stroke:#181818;stroke-width:1.0;" x1="1296.8574" x2="1296.8574" y1="413.5361" y2="682.4189"/><line style="stroke:#181818;stroke-width:1.0;" x1="1296.8574" x2="1015.9622" y1="413.5361" y2="413.5361"/><polygon fill="#181818" points="1025.9622,409.5361,1015.9622,413.5361,1025.9622,417.5361,1021.9622,413.5361" style="stroke:#181818;stroke-width:1.0;"/><line style="stroke:#181818;stroke-width:1.0;" x1="631.2341" x2="478.7441" y1="413.5361" y2="413.5361"/><polygon fill="#181818" points="474.7441,553.4775,478.7441,563.4775,482.7441,553.4775,478.7441,557.4775" style="stroke:#181818;stroke-width:1.0;"/><line style="stroke:#181818;stroke-width:1.0;" x1="478.7441" x2="478.7441" y1="413.5361" y2="699.4189"/><line style="stroke:#181818;stroke-width:1.0;" x1="478.7441" x2="1318.8574" y1="699.4189" y2="699.4189"/><line style="stroke:#181818;stroke-width:1.0;" x1="1318.8574" x2="1318.8574" y1="204.6143" y2="699.4189"/><line style="stroke:#181818;stroke-width:1.0;" x1="1318.8574" x2="713.1418" y1="204.6143" y2="204.6143"/><polygon fill="#181818" points="723.1418,200.6143,713.1418,204.6143,723.1418,208.6143,719.1418,204.6143" style="stroke:#181818;stroke-width:1.0;"/><line style="stroke:#181818;stroke-width:1.0;" x1="823.5981" x2="823.5981" y1="366.5361" y2="401.5361"/><polygon fill="#181818" points="819.5981,391.5361,823.5981,401.5361,827.5981,391.5361,823.5981,395.5361" style="stroke:#181818;stroke-width:1.0;"/><line style="stroke:#181818;stroke-width:1.0;" x1="527.1335" x2="390.3965" y1="308.5752" y2="308.5752"/><line style="stroke:#181818;stroke-width:1.0;" x1="390.3965" x2="390.3965" y1="308.5752" y2="343.5313"/><polygon fill="#181818" points="386.3965,333.5313,390.3965,343.5313,394.3965,333.5313,390.3965,337.5313" style="stroke:#181818;stroke-width:1.0;"/><line style="stroke:#181818;stroke-width:1.0;" x1="686.8611" x2="823.5981" y1="308.5752" y2="308.5752"/><line style="stroke:#181818;stroke-width:1.0;" x1="823.5981" x2="823.5981" y1="308.5752" y2="330.5752"/><polygon fill="#181818" points="819.5981,320.5752,823.5981,330.5752,827.5981,320.5752,823.5981,324.5752" style="stroke:#181818;stroke-width:1.0;"/><line style="stroke:#181818;stroke-width:1.0;" x1="606.9973" x2="606.9973" y1="276.5752" y2="296.5752"/><polygon fill="#181818" points="602.9973,286.5752,606.9973,296.5752,610.9973,286.5752,606.9973,290.5752" style="stroke:#181818;stroke-width:1.0;"/><line style="stroke:#181818;stroke-width:1.0;" x1="606.9973" x2="606.9973" y1="216.6143" y2="240.6143"/><polygon fill="#181818" points="602.9973,230.6143,606.9973,240.6143,610.9973,230.6143,606.9973,234.6143" style="stroke:#181818;stroke-width:1.0;"/><line style="stroke:#181818;stroke-width:1.0;" x1="500.8528" x2="24" y1="204.6143" y2="204.6143"/><polygon fill="#181818" points="20,462.5166,24,472.5166,28,462.5166,24,466.5166" style="stroke:#181818;stroke-width:1.0;"/><line style="stroke:#181818;stroke-width:1.0;" x1="24" x2="24" y1="204.6143" y2="734.4189"/><line style="stroke:#181818;stroke-width:1.0;" x1="24" x2="986.778" y1="734.4189" y2="734.4189"/><polygon fill="#181818" points="976.778,730.4189,986.778,734.4189,976.778,738.4189,980.778,734.4189" style="stroke:#181818;stroke-width:1.0;"/><line style="stroke:#181818;stroke-width:1.0;" x1="919.2177" x2="606.9973" y1="170.6143" y2="170.6143"/><line style="stroke:#181818;stroke-width:1.0;" x1="606.9973" x2="606.9973" y1="170.6143" y2="192.6143"/><polygon fill="#181818" points="602.9973,182.6143,606.9973,192.6143,610.9973,182.6143,606.9973,186.6143" style="stroke:#181818;stroke-width:1.0;"/><line style="stroke:#181818;stroke-width:1.0;" x1="1078.3383" x2="1390.5586" y1="170.6143" y2="170.6143"/><line style="stroke:#181818;stroke-width:1.0;" x1="1390.5586" x2="1390.5586" y1="170.6143" y2="192.6143"/><polygon fill="#181818" points="1386.5586,182.6143,1390.5586,192.6143,1394.5586,182.6143,1390.5586,186.6143" style="stroke:#181818;stroke-width:1.0;"/><line style="stroke:#181818;stroke-width:1.0;" x1="1390.5586" x2="1390.5586" y1="228.5752" y2="734.4189"/><line style="stroke:#181818;stroke-width:1.0;" x1="1390.5586" x2="1010.778" y1="734.4189" y2="734.4189"/><polygon fill="#181818" points="1020.778,730.4189,1010.778,734.4189,1020.778,738.4189,1016.778,734.4189" style="stroke:#181818;stroke-width:1.0;"/><line style="stroke:#181818;stroke-width:1.0;" x1="998.778" x2="998.778" y1="138.6143" y2="158.6143"/><polygon fill="#181818" points="994.778,148.6143,998.778,158.6143,1002.778,148.6143,998.778,152.6143" style="stroke:#181818;stroke-width:1.0;"/><line style="stroke:#181818;stroke-width:1.0;" x1="998.778" x2="998.778" y1="1030.2383" y2="1065.2383"/><polygon fill="#181818" points="994.778,1055.2383,998.778,1065.2383,1002.778,1055.2383,998.778,1059.2383" style="stroke:#181818;stroke-width:1.0;"/><line style="stroke:#181818;stroke-width:1.0;" x1="998.778" x2="998.778" y1="968.9619" y2="994.2773"/><polygon fill="#181818" points="994.778,984.2773,998.778,994.2773,1002.778,984.2773,998.778,988.2773" style="stroke:#181818;stroke-width:1.0;"/><line style="stroke:#181818;stroke-width:1.0;" x1="1215.9027" x2="1303.7252" y1="956.9619" y2="956.9619"/><polygon fill="#181818" points="1299.7252,1037.7383,1303.7252,1047.7383,1307.7252,1037.7383,1303.7252,1041.7383" style="stroke:#181818;stroke-width:1.0;"/><line style="stroke:#181818;stroke-width:1.0;" x1="1303.7252" x2="1303.7252" y1="956.9619" y2="1133.1992"/><line style="stroke:#181818;stroke-width:1.0;" x1="1303.7252" x2="1010.778" y1="1133.1992" y2="1133.1992"/><polygon fill="#181818" points="1020.778,1129.1992,1010.778,1133.1992,1020.778,1137.1992,1016.778,1133.1992" style="stroke:#181818;stroke-width:1.0;"/><line style="stroke:#181818;stroke-width:1.0;" x1="998.778" x2="998.778" y1="1101.1992" y2="1121.1992"/><polygon fill="#181818" points="994.778,1111.1992,998.778,1121.1992,1002.778,1111.1992,998.778,1115.1992" style="stroke:#181818;stroke-width:1.0;"/><line style="stroke:#181818;stroke-width:1.0;" x1="998.778" x2="998.778" y1="890.3799" y2="944.9619"/><polygon fill="#181818" points="994.778,934.9619,998.778,944.9619,1002.778,934.9619,998.778,938.9619" style="stroke:#181818;stroke-width:1.0;"/><line style="stroke:#181818;stroke-width:1.0;" x1="998.778" x2="998.778" y1="1145.1992" y2="1155.1992"/><line style="stroke:#181818;stroke-width:1.0;" x1="998.778" x2="1327.7252" y1="1155.1992" y2="1155.1992"/><polygon fill="#181818" points="1323.7252,1023.4473,1327.7252,1013.4473,1331.7252,1023.4473,1327.7252,1019.4473" style="stroke:#181818;stroke-width:1.0;"/><line style="stroke:#181818;stroke-width:1.0;" x1="1327.7252" x2="1327.7252" y1="878.3799" y2="1155.1992"/><line style="stroke:#181818;stroke-width:1.0;" x1="1327.7252" x2="1080.7848" y1="878.3799" y2="878.3799"/><polygon fill="#181818" points="1090.7848,874.3799,1080.7848,878.3799,1090.7848,882.3799,1086.7848,878.3799" style="stroke:#181818;stroke-width:1.0;"/><line style="stroke:#181818;stroke-width:1.0;" x1="916.7711" x2="681.8307" y1="878.3799" y2="878.3799"/><polygon fill="#181818" points="677.8307,1009.4473,681.8307,1019.4473,685.8307,1009.4473,681.8307,1013.4473" style="stroke:#181818;stroke-width:1.0;"/><line style="stroke:#181818;stroke-width:1.0;" x1="681.8307" x2="681.8307" y1="878.3799" y2="1167.1992"/><line style="stroke:#181818;stroke-width:1.0;" x1="681.8307" x2="998.778" y1="1167.1992" y2="1167.1992"/><line style="stroke:#181818;stroke-width:1.0;" x1="998.778" x2="998.778" y1="1167.1992" y2="1187.1992"/><polygon fill="#181818" points="994.778,1177.1992,998.778,1187.1992,1002.778,1177.1992,998.778,1181.1992" style="stroke:#181818;stroke-width:1.0;"/><line style="stroke:#181818;stroke-width:1.0;" x1="998.778" x2="998.778" y1="846.3799" y2="866.3799"/><polygon fill="#181818" points="994.778,856.3799,998.778,866.3799,1002.778,856.3799,998.778,860.3799" style="stroke:#181818;stroke-width:1.0;"/><line style="stroke:#181818;stroke-width:1.0;" x1="998.778" x2="998.778" y1="1211.1992" y2="1240.8252"/><polygon fill="#181818" points="994.778,1230.8252,998.778,1240.8252,1002.778,1230.8252,998.778,1234.8252" style="stroke:#181818;stroke-width:1.0;"/><line style="stroke:#181818;stroke-width:1.0;" x1="1061.9779" x2="1570.0314" y1="1199.1992" y2="1199.1992"/><polygon fill="#181818" points="1566.0314,1248.8057,1570.0314,1258.8057,1574.0314,1248.8057,1570.0314,1252.8057" style="stroke:#181818;stroke-width:1.0;"/><line style="stroke:#181818;stroke-width:1.0;" x1="1570.0314" x2="1570.0314" y1="1199.1992" y2="1313.0967"/><line style="stroke:#181818;stroke-width:1.0;" x1="1570.0314" x2="1010.778" y1="1313.0967" y2="1313.0967"/><polygon fill="#181818" points="1020.778,1309.0967,1010.778,1313.0967,1020.778,1317.0967,1016.778,1313.0967" style="stroke:#181818;stroke-width:1.0;"/><line style="stroke:#181818;stroke-width:1.0;" x1="998.778" x2="998.778" y1="1276.7861" y2="1301.0967"/><polygon fill="#181818" points="994.778,1291.0967,998.778,1301.0967,1002.778,1291.0967,998.778,1295.0967" style="stroke:#181818;stroke-width:1.0;"/><line style="stroke:#181818;stroke-width:1.0;" x1="998.778" x2="998.778" y1="790.4189" y2="810.4189"/><polygon fill="#181818" points="994.778,800.4189,998.778,810.4189,1002.778,800.4189,998.778,804.4189" style="stroke:#181818;stroke-width:1.0;"/><line style="stroke:#181818;stroke-width:1.0;" x1="998.778" x2="998.778" y1="1325.0967" y2="1335.0967"/><line style="stroke:#181818;stroke-width:1.0;" x1="998.778" x2="1588.0314" y1="1335.0967" y2="1335.0967"/><polygon fill="#181818" points="1584.0314,1065.0732,1588.0314,1055.0732,1592.0314,1065.0732,1588.0314,1061.0732" style="stroke:#181818;stroke-width:1.0;"/><line style="stroke:#181818;stroke-width:1.0;" x1="1588.0314" x2="1588.0314" y1="778.4189" y2="1335.0967"/><line style="stroke:#181818;stroke-width:1.0;" x1="1588.0314" x2="1092.3998" y1="778.4189" y2="778.4189"/><polygon fill="#181818" points="1102.3998,774.4189,1092.3998,778.4189,1102.3998,782.4189,1098.3998,778.4189" style="stroke:#181818;stroke-width:1.0;"/><line style="stroke:#181818;stroke-width:1.0;" x1="905.1561" x2="646.8307" y1="778.4189" y2="778.4189"/><line style="stroke:#181818;stroke-width:1.0;" x1="646.8307" x2="646.8307" y1="778.4189" y2="810.4189"/><polygon fill="#181818" points="642.8307,800.4189,646.8307,810.4189,650.8307,800.4189,646.8307,804.4189" style="stroke:#181818;stroke-width:1.0;"/><line style="stroke:#181818;stroke-width:1.0;" x1="998.778" x2="998.778" y1="746.4189" y2="766.4189"/><polygon fill="#181818" points="994.778,756.4189,998.778,766.4189,1002.778,756.4189,998.778,760.4189" style="stroke:#181818;stroke-width:1.0;"/><!--SRC=[dLLTRzem57tFhxXIfHQo0fDu2ungGgAQr9RIzMMF9Z69LSUcZiE4fltttPiumQ7qO-KfzlqyznuVBZ9hjqKq6cqbKxRCvJ3M-OZ5Lko4tGyImLB3yi6QMnO4XMN61eCPvEDOtmZ5RqHXBmEsOqAojUG_bdS5NGNJM4jj8iEJcU5RRInFq4QcwQWopIP143rKfaNwavkTYFcG5OL8rNn9cHyr9UlrqKzieFT-Gb3Q0i-tTd_L1r50Ry-BFjYCgm3WToOaXruOIgstOGXU3X0AZbB2LHzZ0A9yFDSIctbmTlW66w4I2e4mz8U0EJEsutWxN-BtENrKeNZWpoMJOBLV1c5H1OBseWWsN-6ekw-1LDu0PrkXdd0AjZGAk37QODAYb7RY770872JVM7U-qp1V0gMdj1jTrjtVZY5XkD7QQODfc3IS9VksHmoBuCzVO8e-WN3IsKLKjsLXTSuDB4t2pLa4qzZTL1TtUZPqtXozgJ5tJ91BSLOTk2nmBKet-AAc_ChkSTZUm8RvU96kIkGeqj9DhzrhiubJkxGPi_-tcwQPUZr-HpFu2kVdBVk7ce2YoRK5XuU1hqWL9MvHQDMQJn2p-KKML_xWbVfoGByYm8tZySHU2twrny6RFNg5L28sGNiyaoBDR6euLz6R8B7sKJk7d9tr3bvrnDBLOeDE7-sjFu8eqKIjJAWKCiGv2Po_OuOlJSIE5rBbNlechVjOFVv2tlbUm-V3v3htDPRkuDxdOp_ei2iC_Sh8BoBefndsWc0UIHnD5jUkNFN0ml2MsMoO2nM6lKzIvX8y2Fs9pqiVcrktL_-OQysfqZ13TEkq7sSyVgAXMLeq0SKcuAA0Ta6AesxXMrxpJc3zjuAczHw5IrDu8uf-1mU9QfdMQhGFfB12IbhLwTVyCOdkmaELvagNQGQBQtYs-zuzYh6KEcOqw15yzxxlHVmaYKXEnqcyKQlRNFXFEMjKMrQgFQrtD_kWQbFUw_kRa-9TB-em7upS1ly0]--></g></svg>