<svg xmlns="http://www.w3.org/2000/svg" xmlns:xlink="http://www.w3.org/1999/xlink" contentStyleType="text/css" height="2069px" preserveAspectRatio="none" style="width:1088px;height:2069px;background:#FFFFFF;" version="1.1" viewBox="0 0 1088 2069" width="1088px" zoomAndPan="magnify"><defs/><g><rect fill="#FFFFFF" height="1876.7793" style="stroke:#181818;stroke-width:1.0;" width="10" x="64.9136" y="102.9121"/><rect fill="#FFFFFF" height="31.291" style="stroke:#181818;stroke-width:1.0;" width="10" x="774.8784" y="160.4941"/><rect fill="#FFFFFF" height="34.291" style="stroke:#181818;stroke-width:1.0;" width="10" x="774.8784" y="226.0762"/><rect fill="#FFFFFF" height="31.291" style="stroke:#181818;stroke-width:1.0;" width="10" x="774.8784" y="336.9492"/><rect fill="#FFFFFF" height="31.291" style="stroke:#181818;stroke-width:1.0;" width="10" x="774.8784" y="575.2773"/><rect fill="#FFFFFF" height="31.291" style="stroke:#181818;stroke-width:1.0;" width="10" x="774.8784" y="861.6055"/><rect fill="#FFFFFF" height="31.291" style="stroke:#181818;stroke-width:1.0;" width="10" x="774.8784" y="924.1875"/><rect fill="#FFFFFF" height="31.291" style="stroke:#181818;stroke-width:1.0;" width="10" x="861.8574" y="425.8223"/><rect fill="#FFFFFF" height="31.291" style="stroke:#181818;stroke-width:1.0;" width="10" x="861.8574" y="799.0234"/><rect fill="none" height="1853.7793" style="stroke:#000000;stroke-width:1.5;" width="1053.5547" x="18.1343" y="117.9121"/><rect fill="none" height="81.873" style="stroke:#000000;stroke-width:1.5;" width="879.6299" x="38.1343" y="383.2402"/><rect fill="#90EE90" height="800.3398" style="stroke:#000000;stroke-width:1.5;" width="889.6299" x="28.1343" y="756.4414"/><rect fill="#FFE4E1" height="579.3027" style="stroke:#000000;stroke-width:1.5;" width="744.1167" x="38.1343" y="970.4785"/><line style="stroke:#181818;stroke-width:0.5;stroke-dasharray:5.0,5.0;" x1="69.1343" x2="69.1343" y1="69.6211" y2="1988.6914"/><line style="stroke:#181818;stroke-width:0.5;stroke-dasharray:5.0,5.0;" x1="551.0513" x2="551.0513" y1="69.6211" y2="1988.6914"/><line style="stroke:#181818;stroke-width:0.5;stroke-dasharray:5.0,5.0;" x1="779.8062" x2="779.8062" y1="69.6211" y2="1988.6914"/><line style="stroke:#181818;stroke-width:0.5;stroke-dasharray:5.0,5.0;" x1="865.9507" x2="865.9507" y1="69.6211" y2="1988.6914"/><line style="stroke:#181818;stroke-width:0.5;stroke-dasharray:5.0,5.0;" x1="952.7642" x2="952.7642" y1="69.6211" y2="1988.6914"/><rect fill="#90EE90" height="32.6211" rx="2.5" ry="2.5" style="stroke:#181818;stroke-width:0.5;" width="43.5586" x="48.1343" y="36"/><text fill="#000000" font-family="sans-serif" font-size="14" lengthAdjust="spacing" textLength="29.5586" x="55.1343" y="58.1074">CCA</text><rect fill="#90EE90" height="32.6211" rx="2.5" ry="2.5" style="stroke:#181818;stroke-width:0.5;" width="43.5586" x="48.1343" y="1987.6914"/><text fill="#000000" font-family="sans-serif" font-size="14" lengthAdjust="spacing" textLength="29.5586" x="55.1343" y="2009.7988">CCA</text><text fill="#000000" font-family="sans-serif" font-size="14" lengthAdjust="spacing" textLength="46.6826" x="525.0513" y="66.1074">M3_DB</text><path d="M533.3926,15 C533.3926,5 551.3926,5 551.3926,5 C551.3926,5 569.3926,5 569.3926,15 L569.3926,41 C569.3926,51 551.3926,51 551.3926,51 C551.3926,51 533.3926,51 533.3926,41 L533.3926,15 " fill="#E2E2F0" style="stroke:#181818;stroke-width:1.5;"/><path d="M533.3926,15 C533.3926,25 551.3926,25 551.3926,25 C551.3926,25 569.3926,25 569.3926,15 " fill="none" style="stroke:#181818;stroke-width:1.5;"/><text fill="#000000" font-family="sans-serif" font-size="14" lengthAdjust="spacing" textLength="46.6826" x="525.0513" y="2002.7988">M3_DB</text><path d="M533.3926,2016.3125 C533.3926,2006.3125 551.3926,2006.3125 551.3926,2006.3125 C551.3926,2006.3125 569.3926,2006.3125 569.3926,2016.3125 L569.3926,2042.3125 C569.3926,2052.3125 551.3926,2052.3125 551.3926,2052.3125 C551.3926,2052.3125 533.3926,2052.3125 533.3926,2042.3125 L533.3926,2016.3125 " fill="#E2E2F0" style="stroke:#181818;stroke-width:1.5;"/><path d="M533.3926,2016.3125 C533.3926,2026.3125 551.3926,2026.3125 551.3926,2026.3125 C551.3926,2026.3125 569.3926,2026.3125 569.3926,2016.3125 " fill="none" style="stroke:#181818;stroke-width:1.5;"/><text fill="#000000" font-family="sans-serif" font-size="14" lengthAdjust="spacing" textLength="66.1445" x="743.8062" y="66.1074">InternalDB</text><path d="M761.8784,15 C761.8784,5 779.8784,5 779.8784,5 C779.8784,5 797.8784,5 797.8784,15 L797.8784,41 C797.8784,51 779.8784,51 779.8784,51 C779.8784,51 761.8784,51 761.8784,41 L761.8784,15 " fill="#E2E2F0" style="stroke:#181818;stroke-width:1.5;"/><path d="M761.8784,15 C761.8784,25 779.8784,25 779.8784,25 C779.8784,25 797.8784,25 797.8784,15 " fill="none" style="stroke:#181818;stroke-width:1.5;"/><text fill="#000000" font-family="sans-serif" font-size="14" lengthAdjust="spacing" textLength="66.1445" x="743.8062" y="2002.7988">InternalDB</text><path d="M761.8784,2016.3125 C761.8784,2006.3125 779.8784,2006.3125 779.8784,2006.3125 C779.8784,2006.3125 797.8784,2006.3125 797.8784,2016.3125 L797.8784,2042.3125 C797.8784,2052.3125 779.8784,2052.3125 779.8784,2052.3125 C779.8784,2052.3125 761.8784,2052.3125 761.8784,2042.3125 L761.8784,2016.3125 " fill="#E2E2F0" style="stroke:#181818;stroke-width:1.5;"/><path d="M761.8784,2016.3125 C761.8784,2026.3125 779.8784,2026.3125 779.8784,2026.3125 C779.8784,2026.3125 797.8784,2026.3125 797.8784,2016.3125 " fill="none" style="stroke:#181818;stroke-width:1.5;"/><rect fill="#E2E2F0" height="32.6211" style="stroke:#181818;stroke-width:0.5;" width="77.8135" x="829.9507" y="32"/><rect fill="#E2E2F0" height="32.6211" style="stroke:#181818;stroke-width:0.5;" width="77.8135" x="825.9507" y="36"/><text fill="#000000" font-family="sans-serif" font-size="14" lengthAdjust="spacing" textLength="63.8135" x="832.9507" y="58.1074">Local_File</text><rect fill="#E2E2F0" height="32.6211" style="stroke:#181818;stroke-width:0.5;" width="77.8135" x="829.9507" y="1987.6914"/><rect fill="#E2E2F0" height="32.6211" style="stroke:#181818;stroke-width:0.5;" width="77.8135" x="825.9507" y="1991.6914"/><text fill="#000000" font-family="sans-serif" font-size="14" lengthAdjust="spacing" textLength="63.8135" x="832.9507" y="2013.7988">Local_File</text><rect fill="#E2E2F0" height="32.6211" rx="2.5" ry="2.5" style="stroke:#181818;stroke-width:0.5;" width="71.6064" x="917.7642" y="36"/><text fill="#000000" font-family="sans-serif" font-size="14" lengthAdjust="spacing" textLength="57.6064" x="924.7642" y="58.1074">database</text><rect fill="#E2E2F0" height="32.6211" rx="2.5" ry="2.5" style="stroke:#181818;stroke-width:0.5;" width="71.6064" x="917.7642" y="1987.6914"/><text fill="#000000" font-family="sans-serif" font-size="14" lengthAdjust="spacing" textLength="57.6064" x="924.7642" y="2009.7988">database</text><rect fill="#FFFFFF" height="1876.7793" style="stroke:#181818;stroke-width:1.0;" width="10" x="64.9136" y="102.9121"/><rect fill="#FFFFFF" height="31.291" style="stroke:#181818;stroke-width:1.0;" width="10" x="774.8784" y="160.4941"/><rect fill="#FFFFFF" height="34.291" style="stroke:#181818;stroke-width:1.0;" width="10" x="774.8784" y="226.0762"/><rect fill="#FFFFFF" height="31.291" style="stroke:#181818;stroke-width:1.0;" width="10" x="774.8784" y="336.9492"/><rect fill="#FFFFFF" height="31.291" style="stroke:#181818;stroke-width:1.0;" width="10" x="774.8784" y="575.2773"/><rect fill="#FFFFFF" height="31.291" style="stroke:#181818;stroke-width:1.0;" width="10" x="774.8784" y="861.6055"/><rect fill="#FFFFFF" height="31.291" style="stroke:#181818;stroke-width:1.0;" width="10" x="774.8784" y="924.1875"/><rect fill="#FFFFFF" height="31.291" style="stroke:#181818;stroke-width:1.0;" width="10" x="861.8574" y="425.8223"/><rect fill="#FFFFFF" height="31.291" style="stroke:#181818;stroke-width:1.0;" width="10" x="861.8574" y="799.0234"/><polygon fill="#181818" points="52.9136,98.9121,62.9136,102.9121,52.9136,106.9121,56.9136,102.9121" style="stroke:#181818;stroke-width:1.0;"/><line style="stroke:#181818;stroke-width:1.0;" x1="0" x2="58.9136" y1="102.9121" y2="102.9121"/><text fill="#000000" font-family="sans-serif" font-size="13" font-weight="bold" lengthAdjust="spacing" textLength="7.23" x="7" y="97.6494">1</text><text fill="#000000" font-family="sans-serif" font-size="13" lengthAdjust="spacing" textLength="34.6836" x="18.23" y="97.6494">jobs []</text><path d="M18.1343,117.9121 L90.5688,117.9121 L90.5688,127.2031 L80.5688,137.2031 L18.1343,137.2031 L18.1343,117.9121 " fill="#EEEEEE" style="stroke:#000000;stroke-width:1.5;"/><rect fill="none" height="1853.7793" style="stroke:#000000;stroke-width:1.5;" width="1053.5547" x="18.1343" y="117.9121"/><text fill="#000000" font-family="sans-serif" font-size="13" font-weight="bold" lengthAdjust="spacing" textLength="27.4346" x="33.1343" y="132.9404">loop</text><text fill="#000000" font-family="sans-serif" font-size="11" font-weight="bold" lengthAdjust="spacing" textLength="56.2085" x="105.5688" y="131.7822">[job : jobs]</text><polygon fill="#181818" points="762.8784,156.4941,772.8784,160.4941,762.8784,164.4941,766.8784,160.4941" style="stroke:#181818;stroke-width:1.0;"/><line style="stroke:#181818;stroke-width:1.0;" x1="74.9136" x2="768.8784" y1="160.4941" y2="160.4941"/><text fill="#000000" font-family="sans-serif" font-size="13" font-weight="bold" lengthAdjust="spacing" textLength="7.23" x="81.9136" y="155.2314">2</text><text fill="#000000" font-family="sans-serif" font-size="13" lengthAdjust="spacing" textLength="176.2871" x="93.1436" y="155.2314">SELECT TC_M3_CO BY jobId</text><polygon fill="#181818" points="85.9136,187.7852,75.9136,191.7852,85.9136,195.7852,81.9136,191.7852" style="stroke:#181818;stroke-width:1.0;"/><line style="stroke:#181818;stroke-width:1.0;stroke-dasharray:2.0,2.0;" x1="79.9136" x2="778.8784" y1="191.7852" y2="191.7852"/><text fill="#000000" font-family="sans-serif" font-size="13" font-weight="bold" lengthAdjust="spacing" textLength="7.23" x="91.9136" y="186.5225">3</text><text fill="#000000" font-family="sans-serif" font-size="13" lengthAdjust="spacing" textLength="47.709" x="103.1436" y="186.5225">jobBean</text><polygon fill="#181818" points="762.8784,222.0762,772.8784,226.0762,762.8784,230.0762,766.8784,226.0762" style="stroke:#181818;stroke-width:1.0;"/><line style="stroke:#181818;stroke-width:1.0;" x1="74.9136" x2="768.8784" y1="226.0762" y2="226.0762"/><text fill="#000000" font-family="sans-serif" font-size="13" font-weight="bold" lengthAdjust="spacing" textLength="7.23" x="81.9136" y="220.8135">4</text><text fill="#000000" font-family="sans-serif" font-size="13" lengthAdjust="spacing" textLength="240.5508" x="93.1436" y="220.8135">UPDATE SET status, remark TC_M3_CO</text><path d="M789,204.7852 L789,231.7852 L1065,231.7852 L1065,214.7852 L1055,204.7852 L789,204.7852 " fill="#FEFFDD" style="stroke:#181818;stroke-width:0.5;"/><path d="M1055,204.7852 L1055,214.7852 L1065,214.7852 L1055,204.7852 " fill="#FEFFDD" style="stroke:#181818;stroke-width:0.5;"/><text fill="#000000" font-family="sans-serif" font-size="13" lengthAdjust="spacing" textLength="255.8105" x="795" y="223.8135">Update CO Job Upload Status to processing</text><polygon fill="#181818" points="85.9136,256.3672,75.9136,260.3672,85.9136,264.3672,81.9136,260.3672" style="stroke:#181818;stroke-width:1.0;"/><line style="stroke:#181818;stroke-width:1.0;stroke-dasharray:2.0,2.0;" x1="79.9136" x2="778.8784" y1="260.3672" y2="260.3672"/><text fill="#000000" font-family="sans-serif" font-size="13" font-weight="bold" lengthAdjust="spacing" textLength="7.23" x="91.9136" y="255.1045">5</text><text fill="#000000" font-family="sans-serif" font-size="13" lengthAdjust="spacing" textLength="3.6118" x="103.1436" y="255.1045">&#160;</text><rect fill="#EEEEEE" height="3" style="stroke:#EEEEEE;stroke-width:1.0;" width="1081.689" x="0" y="290.0127"/><line style="stroke:#000000;stroke-width:1.0;" x1="0" x2="1081.689" y1="290.0127" y2="290.0127"/><line style="stroke:#000000;stroke-width:1.0;" x1="0" x2="1081.689" y1="293.0127" y2="293.0127"/><rect fill="#EEEEEE" height="25.291" style="stroke:#000000;stroke-width:2.0;" width="141.1436" x="470.2727" y="278.3672"/><text fill="#000000" font-family="sans-serif" font-size="13" font-weight="bold" lengthAdjust="spacing" textLength="123.5317" x="476.2727" y="296.3955">STEP1: Get the files</text><polygon fill="#181818" points="762.8784,332.9492,772.8784,336.9492,762.8784,340.9492,766.8784,336.9492" style="stroke:#181818;stroke-width:1.0;"/><line style="stroke:#181818;stroke-width:1.0;" x1="74.9136" x2="768.8784" y1="336.9492" y2="336.9492"/><text fill="#000000" font-family="sans-serif" font-size="13" font-weight="bold" lengthAdjust="spacing" textLength="7.23" x="81.9136" y="331.6865">6</text><text fill="#000000" font-family="sans-serif" font-size="13" lengthAdjust="spacing" textLength="423.0142" x="93.1436" y="331.6865">SELECT TC_CUST_PO_FILE_INFO WHERE m3CoUploadJobId = :jobId</text><polygon fill="#181818" points="85.9136,364.2402,75.9136,368.2402,85.9136,372.2402,81.9136,368.2402" style="stroke:#181818;stroke-width:1.0;"/><line style="stroke:#181818;stroke-width:1.0;stroke-dasharray:2.0,2.0;" x1="79.9136" x2="778.8784" y1="368.2402" y2="368.2402"/><text fill="#000000" font-family="sans-serif" font-size="13" font-weight="bold" lengthAdjust="spacing" textLength="7.23" x="91.9136" y="362.9775">7</text><text fill="#000000" font-family="sans-serif" font-size="13" lengthAdjust="spacing" textLength="52.749" x="103.1436" y="362.9775">folderList</text><path d="M38.1343,383.2402 L110.5688,383.2402 L110.5688,392.5313 L100.5688,402.5313 L38.1343,402.5313 L38.1343,383.2402 " fill="#EEEEEE" style="stroke:#000000;stroke-width:1.5;"/><rect fill="none" height="81.873" style="stroke:#000000;stroke-width:1.5;" width="879.6299" x="38.1343" y="383.2402"/><text fill="#000000" font-family="sans-serif" font-size="13" font-weight="bold" lengthAdjust="spacing" textLength="27.4346" x="53.1343" y="398.2686">loop</text><text fill="#000000" font-family="sans-serif" font-size="11" font-weight="bold" lengthAdjust="spacing" textLength="97.77" x="125.5688" y="397.1104">[folder : folderList]</text><polygon fill="#181818" points="849.8574,421.8223,859.8574,425.8223,849.8574,429.8223,853.8574,425.8223" style="stroke:#181818;stroke-width:1.0;"/><line style="stroke:#181818;stroke-width:1.0;" x1="74.9136" x2="855.8574" y1="425.8223" y2="425.8223"/><text fill="#000000" font-family="sans-serif" font-size="13" font-weight="bold" lengthAdjust="spacing" textLength="7.23" x="81.9136" y="420.5596">8</text><text fill="#000000" font-family="sans-serif" font-size="13" lengthAdjust="spacing" textLength="110.5508" x="93.1436" y="420.5596">load file from folder</text><polygon fill="#181818" points="85.9136,453.1133,75.9136,457.1133,85.9136,461.1133,81.9136,457.1133" style="stroke:#181818;stroke-width:1.0;"/><line style="stroke:#181818;stroke-width:1.0;stroke-dasharray:2.0,2.0;" x1="79.9136" x2="865.8574" y1="457.1133" y2="457.1133"/><text fill="#000000" font-family="sans-serif" font-size="13" font-weight="bold" lengthAdjust="spacing" textLength="7.23" x="91.9136" y="451.8506">9</text><text fill="#0000FF" font-family="sans-serif" font-size="13" lengthAdjust="spacing" textLength="23.1182" x="103.1436" y="451.8506">files</text><rect fill="#EEEEEE" height="3" style="stroke:#EEEEEE;stroke-width:1.0;" width="1081.689" x="0" y="493.7588"/><line style="stroke:#000000;stroke-width:1.0;" x1="0" x2="1081.689" y1="493.7588" y2="493.7588"/><line style="stroke:#000000;stroke-width:1.0;" x1="0" x2="1081.689" y1="496.7588" y2="496.7588"/><rect fill="#EEEEEE" height="25.291" style="stroke:#000000;stroke-width:2.0;" width="310.8545" x="385.4172" y="482.1133"/><text fill="#000000" font-family="sans-serif" font-size="13" font-weight="bold" lengthAdjust="spacing" textLength="293.2427" x="391.4172" y="500.1416">STEP2: Get the field mapping &amp;&amp; SKU mapping</text><polygon fill="#181818" points="762.8784,571.2773,772.8784,575.2773,762.8784,579.2773,766.8784,575.2773" style="stroke:#181818;stroke-width:1.0;"/><line style="stroke:#181818;stroke-width:1.0;" x1="74.9136" x2="768.8784" y1="575.2773" y2="575.2773"/><text fill="#000000" font-family="sans-serif" font-size="13" font-weight="bold" lengthAdjust="spacing" textLength="14.46" x="81.9136" y="552.7236">10</text><text fill="#000000" font-family="sans-serif" font-size="13" lengthAdjust="spacing" textLength="176.2808" x="100.3735" y="535.4326">SELECT TP_PO_FIELD_MAP</text><text fill="#000000" font-family="sans-serif" font-size="13" lengthAdjust="spacing" textLength="531.3687" x="103.9854" y="552.7236">JOIN TP_PO_FIELD_MAP_DETAILS d ON m.PO_FIELD_MAP_ID = d.PO_FIELD_MAP_ID</text><text fill="#000000" font-family="sans-serif" font-size="13" lengthAdjust="spacing" textLength="276.3643" x="103.9854" y="570.0146">WHERE PO_FIELD_MAP_ID = :jobBean.mapId</text><polygon fill="#181818" points="85.9136,602.5684,75.9136,606.5684,85.9136,610.5684,81.9136,606.5684" style="stroke:#181818;stroke-width:1.0;"/><line style="stroke:#181818;stroke-width:1.0;stroke-dasharray:2.0,2.0;" x1="79.9136" x2="778.8784" y1="606.5684" y2="606.5684"/><text fill="#000000" font-family="sans-serif" font-size="13" font-weight="bold" lengthAdjust="spacing" textLength="14.46" x="91.9136" y="601.3057">11</text><text fill="#000000" font-family="sans-serif" font-size="13" lengthAdjust="spacing" textLength="73.7153" x="110.3735" y="601.3057">fieldMapping</text><rect fill="#EEEEEE" height="3" style="stroke:#EEEEEE;stroke-width:1.0;" width="1081.689" x="0" y="636.2139"/><line style="stroke:#000000;stroke-width:1.0;" x1="0" x2="1081.689" y1="636.2139" y2="636.2139"/><line style="stroke:#000000;stroke-width:1.0;" x1="0" x2="1081.689" y1="639.2139" y2="639.2139"/><rect fill="#EEEEEE" height="25.291" style="stroke:#000000;stroke-width:2.0;" width="419.2407" x="331.2241" y="624.5684"/><text fill="#000000" font-family="sans-serif" font-size="13" font-weight="bold" lengthAdjust="spacing" textLength="401.6289" x="337.2241" y="642.5967">STEP3: Prepare fo mapping by sort out to Header and Line starts</text><line style="stroke:#181818;stroke-width:1.0;" x1="74.9136" x2="116.9136" y1="683.1504" y2="683.1504"/><line style="stroke:#181818;stroke-width:1.0;" x1="116.9136" x2="116.9136" y1="683.1504" y2="696.1504"/><line style="stroke:#181818;stroke-width:1.0;" x1="75.9136" x2="116.9136" y1="696.1504" y2="696.1504"/><polygon fill="#181818" points="85.9136,692.1504,75.9136,696.1504,85.9136,700.1504,81.9136,696.1504" style="stroke:#181818;stroke-width:1.0;"/><text fill="#000000" font-family="sans-serif" font-size="13" font-weight="bold" lengthAdjust="spacing" textLength="14.46" x="81.9136" y="677.8877">12</text><text fill="#000000" font-family="sans-serif" font-size="13" lengthAdjust="spacing" textLength="429.019" x="100.3735" y="677.8877">partition by fieldMapping.getDetails is CO 'Header fields' or 'CO Line fields'</text><rect fill="#EEEEEE" height="3" style="stroke:#EEEEEE;stroke-width:1.0;" width="1081.689" x="0" y="725.7959"/><line style="stroke:#000000;stroke-width:1.0;" x1="0" x2="1081.689" y1="725.7959" y2="725.7959"/><line style="stroke:#000000;stroke-width:1.0;" x1="0" x2="1081.689" y1="728.7959" y2="728.7959"/><rect fill="#EEEEEE" height="25.291" style="stroke:#000000;stroke-width:2.0;" width="321.6709" x="380.009" y="714.1504"/><text fill="#000000" font-family="sans-serif" font-size="13" font-weight="bold" lengthAdjust="spacing" textLength="304.0591" x="386.009" y="732.1787">STEP4: Get content through fieldMapping per file</text><path d="M28.1343,756.4414 L100.5688,756.4414 L100.5688,765.7324 L90.5688,775.7324 L28.1343,775.7324 L28.1343,756.4414 " fill="#EEEEEE" style="stroke:#000000;stroke-width:1.5;"/><rect fill="none" height="800.3398" style="stroke:#000000;stroke-width:1.5;" width="889.6299" x="28.1343" y="756.4414"/><text fill="#000000" font-family="sans-serif" font-size="13" font-weight="bold" lengthAdjust="spacing" textLength="27.4346" x="43.1343" y="771.4697">loop</text><text fill="#000000" font-family="sans-serif" font-size="11" font-weight="bold" lengthAdjust="spacing" textLength="26.2754" x="115.5688" y="770.3115">[file :</text><text fill="#0000FF" font-family="sans-serif" font-size="11" font-weight="bold" lengthAdjust="spacing" textLength="22.0107" x="144.9004" y="770.3115">files</text><text fill="#000000" font-family="sans-serif" font-size="11" font-weight="bold" lengthAdjust="spacing" textLength="3.6631" x="166.9111" y="770.3115">]</text><polygon fill="#181818" points="849.8574,795.0234,859.8574,799.0234,849.8574,803.0234,853.8574,799.0234" style="stroke:#181818;stroke-width:1.0;"/><line style="stroke:#181818;stroke-width:1.0;" x1="74.9136" x2="855.8574" y1="799.0234" y2="799.0234"/><text fill="#000000" font-family="sans-serif" font-size="13" font-weight="bold" lengthAdjust="spacing" textLength="14.46" x="81.9136" y="793.7607">13</text><text fill="#000000" font-family="sans-serif" font-size="13" lengthAdjust="spacing" textLength="291.7192" x="100.3735" y="793.7607">Parse xml-file and 'Header fields' &amp; 'CO Line fields'</text><polygon fill="#181818" points="85.9136,826.3145,75.9136,830.3145,85.9136,834.3145,81.9136,830.3145" style="stroke:#181818;stroke-width:1.0;"/><line style="stroke:#181818;stroke-width:1.0;stroke-dasharray:2.0,2.0;" x1="79.9136" x2="865.8574" y1="830.3145" y2="830.3145"/><text fill="#000000" font-family="sans-serif" font-size="13" font-weight="bold" lengthAdjust="spacing" textLength="14.46" x="91.9136" y="825.0518">14</text><text fill="#000000" font-family="sans-serif" font-size="13" lengthAdjust="spacing" textLength="233.416" x="110.3735" y="825.0518">mappedResult {headerFields, lineFields}</text><polygon fill="#181818" points="762.8784,857.6055,772.8784,861.6055,762.8784,865.6055,766.8784,861.6055" style="stroke:#181818;stroke-width:1.0;"/><line style="stroke:#181818;stroke-width:1.0;" x1="74.9136" x2="768.8784" y1="861.6055" y2="861.6055"/><text fill="#000000" font-family="sans-serif" font-size="13" font-weight="bold" lengthAdjust="spacing" textLength="14.46" x="81.9136" y="856.3428">15</text><text fill="#000000" font-family="sans-serif" font-size="13" lengthAdjust="spacing" textLength="662.5049" x="100.3735" y="856.3428">SELECT TU_MTM_SKU_MAP_ITEMS WHERE fieldMap.poFieldMapId = :fieldMapId AND orderStyleNo = :styleNo</text><polygon fill="#181818" points="85.9136,888.8965,75.9136,892.8965,85.9136,896.8965,81.9136,892.8965" style="stroke:#181818;stroke-width:1.0;"/><line style="stroke:#181818;stroke-width:1.0;stroke-dasharray:2.0,2.0;" x1="79.9136" x2="778.8784" y1="892.8965" y2="892.8965"/><text fill="#000000" font-family="sans-serif" font-size="13" font-weight="bold" lengthAdjust="spacing" textLength="14.46" x="91.9136" y="887.6338">16</text><text fill="#000000" font-family="sans-serif" font-size="13" lengthAdjust="spacing" textLength="70.8018" x="110.3735" y="887.6338">skuMapItem</text><polygon fill="#181818" points="762.8784,920.1875,772.8784,924.1875,762.8784,928.1875,766.8784,924.1875" style="stroke:#181818;stroke-width:1.0;"/><line style="stroke:#181818;stroke-width:1.0;" x1="74.9136" x2="768.8784" y1="924.1875" y2="924.1875"/><text fill="#000000" font-family="sans-serif" font-size="13" font-weight="bold" lengthAdjust="spacing" textLength="14.46" x="81.9136" y="918.9248">17</text><text fill="#000000" font-family="sans-serif" font-size="13" lengthAdjust="spacing" textLength="504.6514" x="100.3735" y="918.9248">SELECT TU_MTM_SKU_MAP_DETAILS WHERE fieldMap.poFieldMapId = :fieldMapId</text><polygon fill="#181818" points="85.9136,951.4785,75.9136,955.4785,85.9136,959.4785,81.9136,955.4785" style="stroke:#181818;stroke-width:1.0;"/><line style="stroke:#181818;stroke-width:1.0;stroke-dasharray:2.0,2.0;" x1="79.9136" x2="778.8784" y1="955.4785" y2="955.4785"/><text fill="#000000" font-family="sans-serif" font-size="13" font-weight="bold" lengthAdjust="spacing" textLength="14.46" x="91.9136" y="950.2158">18</text><text fill="#000000" font-family="sans-serif" font-size="13" lengthAdjust="spacing" textLength="191.8325" x="110.3735" y="950.2158">skuDetailMap[fieldMapId -&gt; itself]</text><path d="M38.1343,970.4785 L110.5688,970.4785 L110.5688,979.7695 L100.5688,989.7695 L38.1343,989.7695 L38.1343,970.4785 " fill="#EEEEEE" style="stroke:#000000;stroke-width:1.5;"/><rect fill="none" height="579.3027" style="stroke:#000000;stroke-width:1.5;" width="744.1167" x="38.1343" y="970.4785"/><text fill="#000000" font-family="sans-serif" font-size="13" font-weight="bold" lengthAdjust="spacing" textLength="27.4346" x="53.1343" y="985.5068">loop</text><text fill="#000000" font-family="sans-serif" font-size="11" font-weight="bold" lengthAdjust="spacing" textLength="86.7861" x="125.5688" y="984.3486">[line : lineFields]</text><line style="stroke:#181818;stroke-width:1.0;" x1="74.9136" x2="116.9136" y1="1270.9209" y2="1270.9209"/><line style="stroke:#181818;stroke-width:1.0;" x1="116.9136" x2="116.9136" y1="1270.9209" y2="1283.9209"/><line style="stroke:#181818;stroke-width:1.0;" x1="75.9136" x2="116.9136" y1="1283.9209" y2="1283.9209"/><polygon fill="#181818" points="85.9136,1279.9209,75.9136,1283.9209,85.9136,1287.9209,81.9136,1283.9209" style="stroke:#181818;stroke-width:1.0;"/><text fill="#000000" font-family="sans-serif" font-size="13" font-weight="bold" lengthAdjust="spacing" textLength="14.46" x="81.9136" y="1265.6582">19</text><text fill="#000000" font-family="sans-serif" font-size="13" lengthAdjust="spacing" textLength="102.6035" x="100.3735" y="1265.6582">build rawCOLines</text><path d="M224.0635,994.7695 L224.0635,1544.7695 L761.0635,1544.7695 L761.0635,1004.7695 L751.0635,994.7695 L224.0635,994.7695 " fill="#FEFFDD" style="stroke:#181818;stroke-width:0.5;"/><path d="M751.0635,994.7695 L751.0635,1004.7695 L761.0635,1004.7695 L751.0635,994.7695 " fill="#FEFFDD" style="stroke:#181818;stroke-width:0.5;"/><text fill="#000000" font-family="sans-serif" font-size="13" lengthAdjust="spacing" textLength="189.6553" x="230.0635" y="1013.7979">rawCoLine.m3CoNo = m3CONo;</text><text fill="#000000" font-family="sans-serif" font-size="13" lengthAdjust="spacing" textLength="220.0479" x="230.0635" y="1031.0889">rawCoLine.m3CoUploadJobId = jobId;</text><text fill="#000000" font-family="sans-serif" font-size="13" lengthAdjust="spacing" textLength="10.8354" x="230.0635" y="1048.3799">...</text><text fill="#000000" font-family="sans-serif" font-size="13" lengthAdjust="spacing" textLength="182.8188" x="230.0635" y="1065.6709">set rawCoLine object properties</text><text fill="#000000" font-family="sans-serif" font-size="13" lengthAdjust="spacing" textLength="10.8354" x="230.0635" y="1082.9619">...</text><text fill="#000000" font-family="sans-serif" font-size="13" lengthAdjust="spacing" textLength="195.438" x="230.0635" y="1100.2529">rawCoLine.customerOrderFileId =</text><text fill="#000000" font-family="sans-serif" font-size="13" lengthAdjust="spacing" textLength="286.4634" x="230.0635" y="1117.5439">rawCoLine.ItemNumber = skuMapItem.M3ItemNo</text><text fill="#000000" font-family="sans-serif" font-size="13" lengthAdjust="spacing" textLength="3.6118" x="230.0635" y="1134.835">&#160;</text><text fill="#000000" font-family="sans-serif" font-size="14" font-weight="bold" lengthAdjust="spacing" textLength="184.8164" x="230.0635" y="1153.2051">Case field `liability` = "TAP"</text><text fill="#000000" font-family="sans-serif" font-size="13" lengthAdjust="spacing" textLength="158.4375" x="244.5107" y="1170.7471">rawCoLine.Liability = "TAP"</text><text fill="#000000" font-family="sans-serif" font-size="13" lengthAdjust="spacing" textLength="176.4712" x="244.5107" y="1188.0381">rawCoLine.PriceTerm = "FOB"</text><text fill="#000000" font-family="sans-serif" font-size="13" lengthAdjust="spacing" textLength="139.0962" x="244.5107" y="1205.3291">rawCoLine.SalesPrice =</text><text fill="#FF0000" font-family="sans-serif" font-size="13" font-weight="bold" lengthAdjust="spacing" textLength="333.8359" x="387.2188" y="1205.3291">See calculate calculateFobSalesPrice activity diagram</text><text fill="#000000" font-family="sans-serif" font-size="13" lengthAdjust="spacing" textLength="160.7671" x="244.5107" y="1222.6201">rawCoLine.FobBasicPrice =</text><text fill="#FF0000" font-family="sans-serif" font-size="13" font-weight="bold" lengthAdjust="spacing" textLength="333.8359" x="412.5015" y="1222.6201">See calculate calculateFobSalesPrice activity diagram</text><text fill="#000000" font-family="sans-serif" font-size="14" font-weight="bold" lengthAdjust="spacing" textLength="205.8232" x="230.0635" y="1240.9902">Case field `liability` = "BUYER"</text><text fill="#000000" font-family="sans-serif" font-size="13" lengthAdjust="spacing" textLength="177.9438" x="244.5107" y="1258.5322">rawCoLine.Liability = "BUYER"</text><text fill="#000000" font-family="sans-serif" font-size="13" lengthAdjust="spacing" textLength="177.9058" x="244.5107" y="1275.8232">rawCoLine.PriceTerm = "CMT"</text><text fill="#000000" font-family="sans-serif" font-size="13" lengthAdjust="spacing" textLength="308.8896" x="244.5107" y="1293.1143">rawCoLine.SalesPrice = skuMapItem.SalesPriceBase</text><text fill="#000000" font-family="sans-serif" font-size="13" lengthAdjust="spacing" textLength="323.3306" x="244.5107" y="1310.4053">rawCoLine.FobBasicPrice = skuMapItem.FobSalesPrice</text><text fill="#000000" font-family="sans-serif" font-size="13" lengthAdjust="spacing" textLength="3.6118" x="230.0635" y="1327.6963">&#160;</text><text fill="#000000" font-family="sans-serif" font-size="13" lengthAdjust="spacing" textLength="331.9888" x="230.0635" y="1344.9873">rawCoLine.CmtBasicPrice = skuMapItem.SalesPriceBase</text><text fill="#000000" font-family="sans-serif" font-size="13" lengthAdjust="spacing" textLength="402.8223" x="230.0635" y="1362.2783">rawCoLine.UpchargeCost = skuDetailMap[M3FieldId].SalesPriceDelta</text><text fill="#000000" font-family="sans-serif" font-size="13" lengthAdjust="spacing" textLength="167.9971" x="230.0635" y="1379.5693">rawCoLine.DiscountPrice = 0</text><text fill="#000000" font-family="sans-serif" font-size="13" lengthAdjust="spacing" textLength="3.6118" x="230.0635" y="1396.8604">&#160;</text><text fill="#000000" font-family="sans-serif" font-size="14" font-weight="bold" lengthAdjust="spacing" textLength="96.4619" x="230.0635" y="1415.2305">If is bulk order</text><text fill="#000000" font-family="sans-serif" font-size="13" lengthAdjust="spacing" textLength="280.5664" x="230.0635" y="1432.7725">rawCoLine.DiscountPrice = field "discount" value</text><text fill="#000000" font-family="sans-serif" font-size="13" lengthAdjust="spacing" textLength="14.4473" x="230.0635" y="1450.0635">&#160;&#160;&#160;&#160;</text><text fill="#000000" font-family="sans-serif" font-size="13" font-weight="bold" lengthAdjust="spacing" textLength="171.6152" x="244.5107" y="1450.0635">Case field `liability` = "TAP"</text><text fill="#000000" font-family="sans-serif" font-size="13" lengthAdjust="spacing" textLength="288.5073" x="258.958" y="1467.3545">rawCoLine.FobBasicPrice -= field "discount" value</text><text fill="#000000" font-family="sans-serif" font-size="13" lengthAdjust="spacing" textLength="455.9395" x="258.958" y="1484.6455">rawCoLine.SalesPrice = rawCoLine.FobBasicPrice + rawCoLine.UpchargeCost</text><text fill="#000000" font-family="sans-serif" font-size="13" lengthAdjust="spacing" textLength="14.4473" x="230.0635" y="1501.9365">&#160;&#160;&#160;&#160;</text><text fill="#000000" font-family="sans-serif" font-size="13" font-weight="bold" lengthAdjust="spacing" textLength="191.1216" x="244.5107" y="1501.9365">Case field `liability` = "BUYER"</text><text fill="#000000" font-family="sans-serif" font-size="13" lengthAdjust="spacing" textLength="289.9355" x="258.958" y="1519.2275">rawCoLine.CmtBasicPrice -= field "discount" value</text><text fill="#000000" font-family="sans-serif" font-size="13" lengthAdjust="spacing" textLength="457.3677" x="258.958" y="1536.5186">rawCoLine.SalesPrice = rawCoLine.CmtBasicPrice + rawCoLine.UpchargeCost</text><rect fill="#EEEEEE" height="3" style="stroke:#EEEEEE;stroke-width:1.0;" width="1081.689" x="0" y="1585.4268"/><line style="stroke:#000000;stroke-width:1.0;" x1="0" x2="1081.689" y1="1585.4268" y2="1585.4268"/><line style="stroke:#000000;stroke-width:1.0;" x1="0" x2="1081.689" y1="1588.4268" y2="1588.4268"/><rect fill="#EEEEEE" height="25.291" style="stroke:#000000;stroke-width:2.0;" width="233.6162" x="424.0364" y="1573.7813"/><text fill="#000000" font-family="sans-serif" font-size="13" font-weight="bold" lengthAdjust="spacing" textLength="216.0044" x="430.0364" y="1591.8096">STEP6: validation header and lines</text><line style="stroke:#181818;stroke-width:1.0;" x1="74.9136" x2="116.9136" y1="1632.3633" y2="1632.3633"/><line style="stroke:#181818;stroke-width:1.0;" x1="116.9136" x2="116.9136" y1="1632.3633" y2="1645.3633"/><line style="stroke:#181818;stroke-width:1.0;" x1="75.9136" x2="116.9136" y1="1645.3633" y2="1645.3633"/><polygon fill="#181818" points="85.9136,1641.3633,75.9136,1645.3633,85.9136,1649.3633,81.9136,1645.3633" style="stroke:#181818;stroke-width:1.0;"/><text fill="#000000" font-family="sans-serif" font-size="13" font-weight="bold" lengthAdjust="spacing" textLength="14.46" x="81.9136" y="1627.1006">20</text><text fill="#000000" font-family="sans-serif" font-size="13" lengthAdjust="spacing" textLength="218.2261" x="100.3735" y="1627.1006">validateCOHeader &amp; validateCOLines</text><rect fill="#EEEEEE" height="3" style="stroke:#EEEEEE;stroke-width:1.0;" width="1081.689" x="0" y="1675.0088"/><line style="stroke:#000000;stroke-width:1.0;" x1="0" x2="1081.689" y1="1675.0088" y2="1675.0088"/><line style="stroke:#000000;stroke-width:1.0;" x1="0" x2="1081.689" y1="1678.0088" y2="1678.0088"/><rect fill="#EEEEEE" height="25.291" style="stroke:#000000;stroke-width:2.0;" width="316.6626" x="382.5132" y="1663.3633"/><text fill="#000000" font-family="sans-serif" font-size="13" font-weight="bold" lengthAdjust="spacing" textLength="299.0508" x="388.5132" y="1681.3916">STEP7: Get M3 Item No and Aggregate if needed</text><line style="stroke:#181818;stroke-width:1.0;" x1="74.9136" x2="116.9136" y1="1721.9453" y2="1721.9453"/><line style="stroke:#181818;stroke-width:1.0;" x1="116.9136" x2="116.9136" y1="1721.9453" y2="1734.9453"/><line style="stroke:#181818;stroke-width:1.0;" x1="75.9136" x2="116.9136" y1="1734.9453" y2="1734.9453"/><polygon fill="#181818" points="85.9136,1730.9453,75.9136,1734.9453,85.9136,1738.9453,81.9136,1734.9453" style="stroke:#181818;stroke-width:1.0;"/><text fill="#000000" font-family="sans-serif" font-size="13" font-weight="bold" lengthAdjust="spacing" textLength="14.46" x="81.9136" y="1716.6826">21</text><text fill="#000000" font-family="sans-serif" font-size="13" lengthAdjust="spacing" textLength="153.8862" x="100.3735" y="1716.6826">buildCODataBeanForMTM</text><rect fill="#EEEEEE" height="3" style="stroke:#EEEEEE;stroke-width:1.0;" width="1081.689" x="0" y="1764.5908"/><line style="stroke:#000000;stroke-width:1.0;" x1="0" x2="1081.689" y1="1764.5908" y2="1764.5908"/><line style="stroke:#000000;stroke-width:1.0;" x1="0" x2="1081.689" y1="1767.5908" y2="1767.5908"/><rect fill="#EEEEEE" height="25.291" style="stroke:#000000;stroke-width:2.0;" width="347.0171" x="367.3359" y="1752.9453"/><text fill="#000000" font-family="sans-serif" font-size="13" font-weight="bold" lengthAdjust="spacing" textLength="329.4053" x="373.3359" y="1770.9736">STEP8: Populate 3 min field value from line to header</text><line style="stroke:#181818;stroke-width:1.0;" x1="74.9136" x2="116.9136" y1="1811.5273" y2="1811.5273"/><line style="stroke:#181818;stroke-width:1.0;" x1="116.9136" x2="116.9136" y1="1811.5273" y2="1824.5273"/><line style="stroke:#181818;stroke-width:1.0;" x1="75.9136" x2="116.9136" y1="1824.5273" y2="1824.5273"/><polygon fill="#181818" points="85.9136,1820.5273,75.9136,1824.5273,85.9136,1828.5273,81.9136,1824.5273" style="stroke:#181818;stroke-width:1.0;"/><text fill="#000000" font-family="sans-serif" font-size="13" font-weight="bold" lengthAdjust="spacing" textLength="14.46" x="81.9136" y="1806.2646">22</text><text fill="#000000" font-family="sans-serif" font-size="13" lengthAdjust="spacing" textLength="212.4434" x="100.3735" y="1806.2646">populateM3COHeaderDataFromLine</text><rect fill="#EEEEEE" height="3" style="stroke:#EEEEEE;stroke-width:1.0;" width="1081.689" x="0" y="1854.1729"/><line style="stroke:#000000;stroke-width:1.0;" x1="0" x2="1081.689" y1="1854.1729" y2="1854.1729"/><line style="stroke:#000000;stroke-width:1.0;" x1="0" x2="1081.689" y1="1857.1729" y2="1857.1729"/><rect fill="#EEEEEE" height="25.291" style="stroke:#000000;stroke-width:2.0;" width="255.2681" x="413.2104" y="1842.5273"/><text fill="#000000" font-family="sans-serif" font-size="13" font-weight="bold" lengthAdjust="spacing" textLength="237.6563" x="419.2104" y="1860.5557">STEP9: Save the mapping result to DB</text><polygon fill="#181818" points="941.5674,1897.1094,951.5674,1901.1094,941.5674,1905.1094,945.5674,1901.1094" style="stroke:#181818;stroke-width:1.0;"/><line style="stroke:#181818;stroke-width:1.0;" x1="74.9136" x2="947.5674" y1="1901.1094" y2="1901.1094"/><text fill="#000000" font-family="sans-serif" font-size="13" font-weight="bold" lengthAdjust="spacing" textLength="14.46" x="81.9136" y="1895.8467">23</text><text fill="#000000" font-family="sans-serif" font-size="13" lengthAdjust="spacing" textLength="47.6709" x="100.3735" y="1895.8467">INSERT</text><text fill="#000000" font-family="sans-serif" font-size="13" font-weight="bold" lengthAdjust="spacing" textLength="215.96" x="151.6563" y="1895.8467">INTO TC_M3_CO_LINE_MTM_RAW</text><polygon fill="#181818" points="941.5674,1928.4004,951.5674,1932.4004,941.5674,1936.4004,945.5674,1932.4004" style="stroke:#181818;stroke-width:1.0;"/><line style="stroke:#181818;stroke-width:1.0;" x1="74.9136" x2="947.5674" y1="1932.4004" y2="1932.4004"/><text fill="#000000" font-family="sans-serif" font-size="13" font-weight="bold" lengthAdjust="spacing" textLength="14.46" x="81.9136" y="1927.1377">24</text><text fill="#000000" font-family="sans-serif" font-size="13" lengthAdjust="spacing" textLength="47.6709" x="100.3735" y="1927.1377">INSERT</text><text fill="#000000" font-family="sans-serif" font-size="13" font-weight="bold" lengthAdjust="spacing" textLength="228.2554" x="151.6563" y="1927.1377">INTO TC_M3_CO_HEADER_UPLOAD</text><polygon fill="#181818" points="941.5674,1959.6914,951.5674,1963.6914,941.5674,1967.6914,945.5674,1963.6914" style="stroke:#181818;stroke-width:1.0;"/><line style="stroke:#181818;stroke-width:1.0;" x1="74.9136" x2="947.5674" y1="1963.6914" y2="1963.6914"/><text fill="#000000" font-family="sans-serif" font-size="13" font-weight="bold" lengthAdjust="spacing" textLength="14.46" x="81.9136" y="1958.4287">25</text><text fill="#000000" font-family="sans-serif" font-size="13" lengthAdjust="spacing" textLength="119.9199" x="100.3735" y="1958.4287">UPDATE SET status</text><text fill="#000000" font-family="sans-serif" font-size="13" font-weight="bold" lengthAdjust="spacing" textLength="69.3481" x="223.9053" y="1958.4287">TC_M3_CO</text><!--SRC=[jLTjS-8s4FxkNx6JpYGpwOMqfTCNUiaCCQR75J0JpDpSN3ESi0Nu8bkkBAVDTFhVkoiPi850-71yGPRszT6ZrUfYgNMMjwwlCy5INIIY4ShaEkT_5JmD-LKKiuLYYUDaJEauZ3CK0jTj0yiX31by8-B5KYyKvwaJCSrcBESmQ4uxToIHDAFPPhgNQgvI9d2D5kFoqmcb43pKiKnpwCkGYMat5fn4vlZlEApGak7w4zCSP6g-qoAPSUKuLxSKHWk-o5aEdnuS8ML67s2d7C0VnOboAtyj67jzpmqWSASOgUl3tKSIxaL6Md5Tg9GcxZXBznkOZ3hjm4Cx0UIQwI9_Wse9KuzhcqOlbHYm8e3C9_qcMKHPeDFt6EGa4v95C3OsG4l8b0nvdiVfmcZmD396Ae4vPdnp0-F06ttVWj-v1hta1geSvuzbx4x6mNJaJxkzlZVj3Ri-V7ZdtNkuLQwquRmdAE06MZkOpAM8kEh7kSt7O6td4EwjnKeO55eBJAOqXBcIIIc-5Yqzl4KkIDMQYOBVcepUNfkPsnKSjVH_gARFHGG9opB43ixFOVp7PFrv39MH1SJhTwQ3zWZ-JE6ztnjkpqyxNj3kzSSGWJ-4f55RwtKGiMXx3YrPT7TbMoN16XZa5igKoi26NaktsOAHudWGCLsvJcxs3BbK6cIXYK7lEAFzOCYSVfnougVIQsBKZz9yNiN5d2DppEaeajrg98q5rnskMIpmvEP4u8lIbP7ABq0gkC1fuxMSs-EpJk0VxGw64lSafPrKibWiQuuXCpwGDsKEXdQLkcCNMqUuiyF74LDOa_v9n9NH9y2sCphVdr1bhsWJU7JFyq9e-7TfrBj6z0q8rBFZ_vpj47OvE9aEWi4KMMif4dY3SScT5HYDJ7RBeJsVyyrNUzX1_D7vM3yBFfIqdDlXTiZvOq4wcYUd1hNY_wl3skFQKWXNFrMY9zywvsB-i05gXwdh5Rl_2HQQPoLn2mbdtFuDt6l9RNBFYXYBX69_kpvjQbrmJx5UXuyQaZGQL2KDkZZmX_At8wBrWchgwQvAez7OcSlnKAnDWPnzmVkHBWSy2phU2lmb6vjGmYBNCk7ALuQUWbCu1-I974DpmMBK6xuq1asp8fqTtHiypoxTyROEVnOncyKYri-VqS9Pq1wTxQZKNVPN2g-K7wauv05N2Sbt_RjZycE61S4eeK9PAHIFRYylnvm3zXnX8OXfwr5NpYewXeaKNTaFNLuUyOVgTooFmvNBh-FpCEntau_U_Kd0lqgZ1hqx24w2liAcpJmYnK_4isAdXffpWDPkeb-oSIIMZOr95YwPMd1NvjgQs5IqGTFKdrxqKB7NuKAp0mOxSHxA8jMheBxRVxXwSxfrPuLuj7N-18kM6sTHENq6JmoloBruNruUFiGlqFxGLbsT5C01vhpauDiNTkVa12tvNvLYdKbV8SMwWrUbM7ihhBhbVLtpJosABiPt2BLvoqs_I3VezXF2t9kbE7Vzia4whqpPcxJgu6VRr0sQG6SByBuaw-q5TciBgdVn75BE8nxjysNkQDVluAEHskEkLDY2rCp_WhsRp6pfR48IbnspXTm-BanBWCrmcTmUDrbfOT1S9KKUkwXC-TJy_Ohz47lYvfcnQhgLxVZG1Jvcw-PNpzqMz8PZxpv0plM6WRz-6KxxlQ5d-ghxzeUIRQzLVUUrEzxzT3Bg- -tEIxexZrCqixA0EWxnuNy0]--></g></svg>