<svg xmlns="http://www.w3.org/2000/svg" xmlns:xlink="http://www.w3.org/1999/xlink" contentStyleType="text/css" height="1593px" preserveAspectRatio="none" style="width:1339px;height:1593px;background:#FFFFFF;" version="1.1" viewBox="0 0 1339 1593" width="1339.2px" zoomAndPan="magnify"><defs/><g><rect fill="#FFFFFF" height="1287.4623" style="stroke:#FFFFFF;stroke-width:0.9;" width="9" x="134.4836" y="185.9924"/><line style="stroke:#181818;stroke-width:0.9;" x1="134.4836" x2="134.4836" y1="185.9924" y2="1473.4547"/><line style="stroke:#181818;stroke-width:0.9;" x1="143.4836" x2="143.4836" y1="185.9924" y2="1473.4547"/><line style="stroke:#181818;stroke-width:0.9;" x1="134.4836" x2="143.4836" y1="185.9924" y2="185.9924"/><rect fill="#FFFFFF" height="0.9" style="stroke:#FFFFFF;stroke-width:0.9;" width="9" x="134.4836" y="1511.8225"/><line style="stroke:#181818;stroke-width:0.9;" x1="134.4836" x2="134.4836" y1="1511.8225" y2="1512.7225"/><line style="stroke:#181818;stroke-width:0.9;" x1="143.4836" x2="143.4836" y1="1511.8225" y2="1512.7225"/><rect fill="#FF69B4" height="25.2" style="stroke:#181818;stroke-width:0.9;" width="9" x="138.9836" y="569.4592"/><rect fill="#FF69B4" height="25.2" style="stroke:#181818;stroke-width:0.9;" width="9" x="138.9836" y="722.6068"/><rect fill="#FFFFFF" height="954.9193" style="stroke:#FFFFFF;stroke-width:0.9;" width="9" x="746.9613" y="518.5354"/><line style="stroke:#181818;stroke-width:0.9;" x1="746.9613" x2="746.9613" y1="518.5354" y2="1473.4547"/><line style="stroke:#181818;stroke-width:0.9;" x1="755.9613" x2="755.9613" y1="518.5354" y2="1473.4547"/><line style="stroke:#181818;stroke-width:0.9;" x1="746.9613" x2="755.9613" y1="518.5354" y2="518.5354"/><rect fill="#FFFFFF" height="0.9" style="stroke:#FFFFFF;stroke-width:0.9;" width="9" x="746.9613" y="1511.8225"/><line style="stroke:#181818;stroke-width:0.9;" x1="746.9613" x2="746.9613" y1="1511.8225" y2="1512.7225"/><line style="stroke:#181818;stroke-width:0.9;" x1="755.9613" x2="755.9613" y1="1511.8225" y2="1512.7225"/><rect fill="#FFFFFF" height="28.1619" style="stroke:#181818;stroke-width:0.9;" width="9" x="751.4613" y="659.083"/><rect fill="#FFFFFF" height="28.1619" style="stroke:#181818;stroke-width:0.9;" width="9" x="751.4613" y="782.2688"/><rect fill="#FFFFFF" height="28.1619" style="stroke:#181818;stroke-width:0.9;" width="9" x="1189.1676" y="310.34"/><rect fill="#FFFFFF" height="28.1619" style="stroke:#181818;stroke-width:0.9;" width="9" x="1189.1676" y="366.6639"/><rect fill="#FFFFFF" height="28.1619" style="stroke:#181818;stroke-width:0.9;" width="9" x="1189.1676" y="446.6496"/><rect fill="#FFFFFF" height="28.1619" style="stroke:#181818;stroke-width:0.9;" width="9" x="1189.1676" y="1137.5736"/><rect fill="#FFFFFF" height="28.1619" style="stroke:#181818;stroke-width:0.9;" width="9" x="1189.1676" y="1193.8975"/><rect fill="#FFFFFF" height="28.1619" style="stroke:#181818;stroke-width:0.9;" width="9" x="1189.1676" y="1345.7689"/><rect fill="#FFFFFF" height="28.1619" style="stroke:#181818;stroke-width:0.9;" width="9" x="1270.9433" y="909.3164"/><rect fill="#FFFFFF" height="28.1619" style="stroke:#181818;stroke-width:0.9;" width="9" x="1270.9433" y="1265.7832"/><rect fill="none" height="199.8334" style="stroke:#000000;stroke-width:1.35;" width="1124.7504" x="110.3823" y="408.3258"/><rect fill="none" height="196.8715" style="stroke:#000000;stroke-width:1.35;" width="673.7862" x="110.3823" y="620.7592"/><rect fill="none" height="153.4096" style="stroke:#000000;stroke-width:1.35;" width="1214.3716" x="110.3823" y="870.9926"/><rect fill="#90EE90" height="390.2906" style="stroke:#000000;stroke-width:1.35;" width="1223.3716" x="101.3823" y="1037.0021"/><rect fill="none" height="113.5477" style="stroke:#000000;stroke-width:1.35;" width="1124.7504" x="110.3823" y="1307.4451"/><line style="stroke:#181818;stroke-width:0.45;stroke-dasharray:5.0,5.0;" x1="138.2823" x2="138.2823" y1="62.659" y2="1473.4547"/><line style="stroke:#A80036;stroke-width:0.9;stroke-dasharray:1.0,4.0;" x1="138.2823" x2="138.2823" y1="1473.4547" y2="1511.8225"/><line style="stroke:#181818;stroke-width:0.45;stroke-dasharray:5.0,5.0;" x1="138.2823" x2="138.2823" y1="1511.8225" y2="1520.8225"/><line style="stroke:#181818;stroke-width:0.45;stroke-dasharray:5.0,5.0;" x1="751.1542" x2="751.1542" y1="62.659" y2="1473.4547"/><line style="stroke:#A80036;stroke-width:0.9;stroke-dasharray:1.0,4.0;" x1="751.1542" x2="751.1542" y1="1473.4547" y2="1511.8225"/><line style="stroke:#181818;stroke-width:0.45;stroke-dasharray:5.0,5.0;" x1="751.1542" x2="751.1542" y1="1511.8225" y2="1520.8225"/><line style="stroke:#181818;stroke-width:0.45;stroke-dasharray:5.0,5.0;" x1="1193.6026" x2="1193.6026" y1="62.659" y2="1473.4547"/><line style="stroke:#A80036;stroke-width:0.9;stroke-dasharray:1.0,4.0;" x1="1193.6026" x2="1193.6026" y1="1473.4547" y2="1511.8225"/><line style="stroke:#181818;stroke-width:0.45;stroke-dasharray:5.0,5.0;" x1="1193.6026" x2="1193.6026" y1="1511.8225" y2="1520.8225"/><line style="stroke:#181818;stroke-width:0.45;stroke-dasharray:5.0,5.0;" x1="1274.7327" x2="1274.7327" y1="62.659" y2="1473.4547"/><line style="stroke:#A80036;stroke-width:0.9;stroke-dasharray:1.0,4.0;" x1="1274.7327" x2="1274.7327" y1="1473.4547" y2="1511.8225"/><line style="stroke:#181818;stroke-width:0.45;stroke-dasharray:5.0,5.0;" x1="1274.7327" x2="1274.7327" y1="1511.8225" y2="1520.8225"/><rect fill="#90EE90" height="29.359" rx="2.25" ry="2.25" style="stroke:#181818;stroke-width:0.45;" width="39.2027" x="119.3823" y="32.4"/><text fill="#000000" font-family="sans-serif" font-size="12.6" lengthAdjust="spacing" textLength="26.6027" x="125.6823" y="52.2967">CCA</text><rect fill="#90EE90" height="29.359" rx="2.25" ry="2.25" style="stroke:#181818;stroke-width:0.45;" width="39.2027" x="119.3823" y="1519.9225"/><text fill="#000000" font-family="sans-serif" font-size="12.6" lengthAdjust="spacing" textLength="26.6027" x="125.6823" y="1539.8191">CCA</text><text fill="#000000" font-family="sans-serif" font-size="12.6" lengthAdjust="spacing" textLength="42.0144" x="727.7542" y="59.4967">M3_DB</text><path d="M735.2613,13.5 C735.2613,4.5 751.4613,4.5 751.4613,4.5 C751.4613,4.5 767.6613,4.5 767.6613,13.5 L767.6613,36.9 C767.6613,45.9 751.4613,45.9 751.4613,45.9 C751.4613,45.9 735.2613,45.9 735.2613,36.9 L735.2613,13.5 " fill="#E2E2F0" style="stroke:#181818;stroke-width:1.35;"/><path d="M735.2613,13.5 C735.2613,22.5 751.4613,22.5 751.4613,22.5 C751.4613,22.5 767.6613,22.5 767.6613,13.5 " fill="none" style="stroke:#181818;stroke-width:1.35;"/><text fill="#000000" font-family="sans-serif" font-size="12.6" lengthAdjust="spacing" textLength="42.0144" x="727.7542" y="1533.5191">M3_DB</text><path d="M735.2613,1545.6814 C735.2613,1536.6814 751.4613,1536.6814 751.4613,1536.6814 C751.4613,1536.6814 767.6613,1536.6814 767.6613,1545.6814 L767.6613,1569.0814 C767.6613,1578.0814 751.4613,1578.0814 751.4613,1578.0814 C751.4613,1578.0814 735.2613,1578.0814 735.2613,1569.0814 L735.2613,1545.6814 " fill="#E2E2F0" style="stroke:#181818;stroke-width:1.35;"/><path d="M735.2613,1545.6814 C735.2613,1554.6814 751.4613,1554.6814 751.4613,1554.6814 C751.4613,1554.6814 767.6613,1554.6814 767.6613,1545.6814 " fill="none" style="stroke:#181818;stroke-width:1.35;"/><text fill="#000000" font-family="sans-serif" font-size="12.6" lengthAdjust="spacing" textLength="59.5301" x="1161.2026" y="59.4967">InternalDB</text><path d="M1177.4676,13.5 C1177.4676,4.5 1193.6676,4.5 1193.6676,4.5 C1193.6676,4.5 1209.8676,4.5 1209.8676,13.5 L1209.8676,36.9 C1209.8676,45.9 1193.6676,45.9 1193.6676,45.9 C1193.6676,45.9 1177.4676,45.9 1177.4676,36.9 L1177.4676,13.5 " fill="#E2E2F0" style="stroke:#181818;stroke-width:1.35;"/><path d="M1177.4676,13.5 C1177.4676,22.5 1193.6676,22.5 1193.6676,22.5 C1193.6676,22.5 1209.8676,22.5 1209.8676,13.5 " fill="none" style="stroke:#181818;stroke-width:1.35;"/><text fill="#000000" font-family="sans-serif" font-size="12.6" lengthAdjust="spacing" textLength="59.5301" x="1161.2026" y="1533.5191">InternalDB</text><path d="M1177.4676,1545.6814 C1177.4676,1536.6814 1193.6676,1536.6814 1193.6676,1536.6814 C1193.6676,1536.6814 1209.8676,1536.6814 1209.8676,1545.6814 L1209.8676,1569.0814 C1209.8676,1578.0814 1193.6676,1578.0814 1193.6676,1578.0814 C1193.6676,1578.0814 1177.4676,1578.0814 1177.4676,1569.0814 L1177.4676,1545.6814 " fill="#E2E2F0" style="stroke:#181818;stroke-width:1.35;"/><path d="M1177.4676,1545.6814 C1177.4676,1554.6814 1193.6676,1554.6814 1193.6676,1554.6814 C1193.6676,1554.6814 1209.8676,1554.6814 1209.8676,1545.6814 " fill="none" style="stroke:#181818;stroke-width:1.35;"/><rect fill="#E2E2F0" height="29.359" style="stroke:#181818;stroke-width:0.45;" width="77.0212" x="1238.7327" y="28.8"/><rect fill="#E2E2F0" height="29.359" style="stroke:#181818;stroke-width:0.45;" width="77.0212" x="1235.1327" y="32.4"/><text fill="#000000" font-family="sans-serif" font-size="12.6" lengthAdjust="spacing" textLength="64.4212" x="1241.4327" y="52.2967">File_Server</text><rect fill="#E2E2F0" height="29.359" style="stroke:#181818;stroke-width:0.45;" width="77.0212" x="1238.7327" y="1519.9225"/><rect fill="#E2E2F0" height="29.359" style="stroke:#181818;stroke-width:0.45;" width="77.0212" x="1235.1327" y="1523.5225"/><text fill="#000000" font-family="sans-serif" font-size="12.6" lengthAdjust="spacing" textLength="64.4212" x="1241.4327" y="1543.4191">File_Server</text><rect fill="#FFFFFF" height="1287.4623" style="stroke:#FFFFFF;stroke-width:0.9;" width="9" x="134.4836" y="185.9924"/><line style="stroke:#181818;stroke-width:0.9;" x1="134.4836" x2="134.4836" y1="185.9924" y2="1473.4547"/><line style="stroke:#181818;stroke-width:0.9;" x1="143.4836" x2="143.4836" y1="185.9924" y2="1473.4547"/><line style="stroke:#181818;stroke-width:0.9;" x1="134.4836" x2="143.4836" y1="185.9924" y2="185.9924"/><rect fill="#FFFFFF" height="0.9" style="stroke:#FFFFFF;stroke-width:0.9;" width="9" x="134.4836" y="1511.8225"/><line style="stroke:#181818;stroke-width:0.9;" x1="134.4836" x2="134.4836" y1="1511.8225" y2="1512.7225"/><line style="stroke:#181818;stroke-width:0.9;" x1="143.4836" x2="143.4836" y1="1511.8225" y2="1512.7225"/><rect fill="#FF69B4" height="25.2" style="stroke:#181818;stroke-width:0.9;" width="9" x="138.9836" y="569.4592"/><rect fill="#FF69B4" height="25.2" style="stroke:#181818;stroke-width:0.9;" width="9" x="138.9836" y="722.6068"/><rect fill="#FFFFFF" height="954.9193" style="stroke:#FFFFFF;stroke-width:0.9;" width="9" x="746.9613" y="518.5354"/><line style="stroke:#181818;stroke-width:0.9;" x1="746.9613" x2="746.9613" y1="518.5354" y2="1473.4547"/><line style="stroke:#181818;stroke-width:0.9;" x1="755.9613" x2="755.9613" y1="518.5354" y2="1473.4547"/><line style="stroke:#181818;stroke-width:0.9;" x1="746.9613" x2="755.9613" y1="518.5354" y2="518.5354"/><rect fill="#FFFFFF" height="0.9" style="stroke:#FFFFFF;stroke-width:0.9;" width="9" x="746.9613" y="1511.8225"/><line style="stroke:#181818;stroke-width:0.9;" x1="746.9613" x2="746.9613" y1="1511.8225" y2="1512.7225"/><line style="stroke:#181818;stroke-width:0.9;" x1="755.9613" x2="755.9613" y1="1511.8225" y2="1512.7225"/><rect fill="#FFFFFF" height="28.1619" style="stroke:#181818;stroke-width:0.9;" width="9" x="751.4613" y="659.083"/><rect fill="#FFFFFF" height="28.1619" style="stroke:#181818;stroke-width:0.9;" width="9" x="751.4613" y="782.2688"/><rect fill="#FFFFFF" height="28.1619" style="stroke:#181818;stroke-width:0.9;" width="9" x="1189.1676" y="310.34"/><rect fill="#FFFFFF" height="28.1619" style="stroke:#181818;stroke-width:0.9;" width="9" x="1189.1676" y="366.6639"/><rect fill="#FFFFFF" height="28.1619" style="stroke:#181818;stroke-width:0.9;" width="9" x="1189.1676" y="446.6496"/><rect fill="#FFFFFF" height="28.1619" style="stroke:#181818;stroke-width:0.9;" width="9" x="1189.1676" y="1137.5736"/><rect fill="#FFFFFF" height="28.1619" style="stroke:#181818;stroke-width:0.9;" width="9" x="1189.1676" y="1193.8975"/><rect fill="#FFFFFF" height="28.1619" style="stroke:#181818;stroke-width:0.9;" width="9" x="1189.1676" y="1345.7689"/><rect fill="#FFFFFF" height="28.1619" style="stroke:#181818;stroke-width:0.9;" width="9" x="1270.9433" y="909.3164"/><rect fill="#FFFFFF" height="28.1619" style="stroke:#181818;stroke-width:0.9;" width="9" x="1270.9433" y="1265.7832"/><polygon fill="#181818" points="123.6836,182.3924,132.6836,185.9924,123.6836,189.5924,127.2836,185.9924" style="stroke:#181818;stroke-width:0.9;"/><line style="stroke:#181818;stroke-width:0.9;" x1="0" x2="129.0836" y1="185.9924" y2="185.9924"/><text fill="#000000" font-family="sans-serif" font-size="11.7" font-weight="bold" lengthAdjust="spacing" textLength="6.507" x="6.3" y="134.5702">1</text><text fill="#000000" font-family="sans-serif" font-size="11.7" lengthAdjust="spacing" textLength="53.3241" x="16.407" y="87.8845">submitJob</text><text fill="#000000" font-family="sans-serif" font-size="11.7" lengthAdjust="spacing" textLength="39.6532" x="29.4095" y="103.4464">- facility</text><text fill="#000000" font-family="sans-serif" font-size="11.7" lengthAdjust="spacing" textLength="65.0413" x="29.4095" y="119.0083">- brandCode</text><text fill="#000000" font-family="sans-serif" font-size="11.7" lengthAdjust="spacing" textLength="3.8962" x="29.4095" y="134.5702">-</text><text fill="#A52A2A" font-family="sans-serif" font-size="11.7" lengthAdjust="spacing" textLength="46.1659" x="36.5563" y="134.5702">m3CoNo</text><text fill="#000000" font-family="sans-serif" font-size="11.7" lengthAdjust="spacing" textLength="3.8962" x="29.4095" y="150.1321">-</text><text fill="#CD853F" font-family="sans-serif" font-size="11.7" lengthAdjust="spacing" textLength="87.1273" x="36.5563" y="150.1321">folderTimestamp</text><text fill="#000000" font-family="sans-serif" font-size="11.7" lengthAdjust="spacing" textLength="44.2063" x="29.4095" y="165.694">- byUser</text><text fill="#000000" font-family="sans-serif" font-size="11.7" lengthAdjust="spacing" textLength="73.4678" x="29.4095" y="181.256">- isSystemJob</text><rect fill="#EEEEEE" height="2.7" style="stroke:#EEEEEE;stroke-width:0.9;" width="1333.7539" x="0" y="212.6733"/><line style="stroke:#000000;stroke-width:0.9;" x1="0" x2="1333.7539" y1="212.6733" y2="212.6733"/><line style="stroke:#000000;stroke-width:0.9;" x1="0" x2="1333.7539" y1="215.3733" y2="215.3733"/><rect fill="#EEEEEE" height="22.7619" style="stroke:#000000;stroke-width:1.8;" width="130.9025" x="601.4257" y="202.1924"/><text fill="#000000" font-family="sans-serif" font-size="11.7" font-weight="bold" lengthAdjust="spacing" textLength="115.0519" x="606.8257" y="218.4179">Validation input data</text><line style="stroke:#181818;stroke-width:0.9;" x1="143.4836" x2="181.2836" y1="270.4781" y2="270.4781"/><line style="stroke:#181818;stroke-width:0.9;" x1="181.2836" x2="181.2836" y1="270.4781" y2="282.1781"/><line style="stroke:#181818;stroke-width:0.9;" x1="144.3836" x2="181.2836" y1="282.1781" y2="282.1781"/><polygon fill="#181818" points="153.3836,278.5781,144.3836,282.1781,153.3836,285.7781,149.7836,282.1781" style="stroke:#181818;stroke-width:0.9;"/><text fill="#000000" font-family="sans-serif" font-size="11.7" font-weight="bold" lengthAdjust="spacing" textLength="6.507" x="149.7836" y="257.9607">2</text><text fill="#000000" font-family="sans-serif" font-size="11.7" lengthAdjust="spacing" textLength="168.4503" x="159.8906" y="250.1798">Validate non empty path params</text><text fill="#000000" font-family="sans-serif" font-size="11.7" lengthAdjust="spacing" textLength="3.2506" x="159.8906" y="265.7417">&#160;</text><polygon fill="#181818" points="1178.3676,306.74,1187.3676,310.34,1178.3676,313.94,1181.9676,310.34" style="stroke:#181818;stroke-width:0.9;"/><line style="stroke:#181818;stroke-width:0.9;" x1="143.4836" x2="1183.7676" y1="310.34" y2="310.34"/><text fill="#000000" font-family="sans-serif" font-size="11.7" font-weight="bold" lengthAdjust="spacing" textLength="6.507" x="149.7836" y="305.6036">3</text><text fill="#000000" font-family="sans-serif" font-size="11.7" lengthAdjust="spacing" textLength="242.5522" x="159.8906" y="305.6036">check exist entity [facility, m3Company: 100] in</text><text fill="#000000" font-family="sans-serif" font-size="11.7" font-weight="bold" lengthAdjust="spacing" textLength="98.8044" x="405.6935" y="305.6036">TM_M3_FACILITY</text><polygon fill="#181818" points="153.3836,334.902,144.3836,338.502,153.3836,342.102,149.7836,338.502" style="stroke:#181818;stroke-width:0.9;"/><line style="stroke:#181818;stroke-width:0.9;stroke-dasharray:2.0,2.0;" x1="147.9836" x2="1192.7676" y1="338.502" y2="338.502"/><text fill="#000000" font-family="sans-serif" font-size="11.7" font-weight="bold" lengthAdjust="spacing" textLength="6.507" x="158.7836" y="333.7655">4</text><text fill="#000000" font-family="sans-serif" font-size="11.7" lengthAdjust="spacing" textLength="3.2506" x="168.8906" y="333.7655">&#160;</text><polygon fill="#181818" points="1178.3676,363.0639,1187.3676,366.6639,1178.3676,370.2639,1181.9676,366.6639" style="stroke:#181818;stroke-width:0.9;"/><line style="stroke:#181818;stroke-width:0.9;" x1="143.4836" x2="1183.7676" y1="366.6639" y2="366.6639"/><text fill="#000000" font-family="sans-serif" font-size="11.7" font-weight="bold" lengthAdjust="spacing" textLength="6.507" x="149.7836" y="361.9274">5</text><text fill="#000000" font-family="sans-serif" font-size="11.7" lengthAdjust="spacing" textLength="169.0901" x="159.8906" y="361.9274">check exist entity [brandCode] in</text><text fill="#000000" font-family="sans-serif" font-size="11.7" font-weight="bold" lengthAdjust="spacing" textLength="88.407" x="332.2314" y="361.9274">TM_M3_BRAND</text><polygon fill="#181818" points="153.3836,391.2258,144.3836,394.8258,153.3836,398.4258,149.7836,394.8258" style="stroke:#181818;stroke-width:0.9;"/><line style="stroke:#181818;stroke-width:0.9;stroke-dasharray:2.0,2.0;" x1="147.9836" x2="1192.7676" y1="394.8258" y2="394.8258"/><text fill="#000000" font-family="sans-serif" font-size="11.7" font-weight="bold" lengthAdjust="spacing" textLength="6.507" x="158.7836" y="390.0894">6</text><text fill="#000000" font-family="sans-serif" font-size="11.7" lengthAdjust="spacing" textLength="3.2506" x="168.8906" y="390.0894">&#160;</text><path d="M110.3823,408.3258 L233.4564,408.3258 L233.4564,416.6877 L224.4564,425.6877 L110.3823,425.6877 L110.3823,408.3258 " fill="#EEEEEE" style="stroke:#000000;stroke-width:1.35;"/><rect fill="none" height="199.8334" style="stroke:#000000;stroke-width:1.35;" width="1124.7504" x="110.3823" y="408.3258"/><text fill="#000000" font-family="sans-serif" font-size="11.7" font-weight="bold" lengthAdjust="spacing" textLength="82.5741" x="123.8823" y="421.8513">checkM3CONo</text><polygon fill="#181818" points="1178.3676,443.0496,1187.3676,446.6496,1178.3676,450.2496,1181.9676,446.6496" style="stroke:#181818;stroke-width:0.9;"/><line style="stroke:#181818;stroke-width:0.9;" x1="143.4836" x2="1183.7676" y1="446.6496" y2="446.6496"/><text fill="#000000" font-family="sans-serif" font-size="11.7" font-weight="bold" lengthAdjust="spacing" textLength="6.507" x="149.7836" y="441.9132">7</text><text fill="#000000" font-family="sans-serif" font-size="11.7" lengthAdjust="spacing" textLength="259.4509" x="159.8906" y="441.9132">find M3Facility entity [facility, m3Company: 100] in</text><text fill="#000000" font-family="sans-serif" font-size="11.7" font-weight="bold" lengthAdjust="spacing" textLength="98.8044" x="422.5922" y="441.9132">TM_M3_FACILITY</text><polygon fill="#181818" points="153.3836,471.2115,144.3836,474.8115,153.3836,478.4115,149.7836,474.8115" style="stroke:#181818;stroke-width:0.9;"/><line style="stroke:#181818;stroke-width:0.9;stroke-dasharray:2.0,2.0;" x1="147.9836" x2="1192.7676" y1="474.8115" y2="474.8115"/><text fill="#000000" font-family="sans-serif" font-size="11.7" font-weight="bold" lengthAdjust="spacing" textLength="6.507" x="158.7836" y="470.0751">8</text><text fill="#0000FF" font-family="sans-serif" font-size="11.7" lengthAdjust="spacing" textLength="52.6557" x="168.8906" y="470.0751">m3Facility</text><polygon fill="#181818" points="736.1613,514.9354,745.1613,518.5354,736.1613,522.1354,739.7613,518.5354" style="stroke:#181818;stroke-width:0.9;"/><line style="stroke:#181818;stroke-width:0.9;" x1="143.4836" x2="741.5613" y1="518.5354" y2="518.5354"/><text fill="#000000" font-family="sans-serif" font-size="11.7" font-weight="bold" lengthAdjust="spacing" textLength="6.507" x="149.7836" y="506.018">9</text><text fill="#000000" font-family="sans-serif" font-size="11.7" lengthAdjust="spacing" textLength="159.2754" x="159.8906" y="498.237">SELECT OACUNO, OAORST,</text><text fill="#000000" font-family="sans-serif" font-size="11.7" font-weight="bold" lengthAdjust="spacing" textLength="50.0506" x="322.4167" y="498.237">OAORSL</text><text fill="#000000" font-family="sans-serif" font-size="11.7" lengthAdjust="spacing" textLength="357.1928" x="375.7179" y="498.237">FROM OOHEAD A JOIN MITWHL B ON A.OAWHLO = B.MWWHLO</text><text fill="#000000" font-family="sans-serif" font-size="11.7" lengthAdjust="spacing" textLength="115.389" x="159.8906" y="513.7989">WHERE OAORNO = :</text><text fill="#0000FF" font-family="sans-serif" font-size="11.7" lengthAdjust="spacing" textLength="52.6557" x="275.2796" y="513.7989">m3Facility</text><text fill="#000000" font-family="sans-serif" font-size="11.7" lengthAdjust="spacing" textLength="170.644" x="327.9353" y="513.7989">.OriginFacility AND B.MWFACI=:</text><text fill="#A52A2A" font-family="sans-serif" font-size="11.7" lengthAdjust="spacing" textLength="46.1659" x="498.5793" y="513.7989">m3CoNo</text><text fill="#000000" font-family="sans-serif" font-size="11.7" lengthAdjust="spacing" textLength="3.2506" x="544.7452" y="513.7989">;</text><line style="stroke:#181818;stroke-width:0.9;" x1="147.9836" x2="185.7836" y1="562.2592" y2="562.2592"/><line style="stroke:#181818;stroke-width:0.9;" x1="185.7836" x2="185.7836" y1="562.2592" y2="573.9592"/><line style="stroke:#181818;stroke-width:0.9;" x1="148.8836" x2="185.7836" y1="573.9592" y2="573.9592"/><polygon fill="#181818" points="157.8836,570.3592,148.8836,573.9592,157.8836,577.5592,154.2836,573.9592" style="stroke:#181818;stroke-width:0.9;"/><text fill="#000000" font-family="sans-serif" font-size="11.7" font-weight="bold" lengthAdjust="spacing" textLength="13.014" x="154.2836" y="549.7418">10</text><text fill="#000000" font-family="sans-serif" font-size="11.7" lengthAdjust="spacing" textLength="172.9806" x="170.8976" y="541.9608">check OACUNO in range [20, 76]</text><text fill="#000000" font-family="sans-serif" font-size="11.7" lengthAdjust="spacing" textLength="31.8779" x="174.1482" y="557.5228">define</text><text fill="#0000FF" font-family="sans-serif" font-size="11.7" lengthAdjust="spacing" textLength="84.5165" x="209.2768" y="557.5228">m3COCustomer</text><text fill="#000000" font-family="sans-serif" font-size="11.7" lengthAdjust="spacing" textLength="6.8326" x="297.0439" y="557.5228">=</text><text fill="#000000" font-family="sans-serif" font-size="11.7" font-weight="bold" lengthAdjust="spacing" textLength="50.0506" x="307.1272" y="557.5228">OAORSL</text><path d="M110.3823,620.7592 L254.9197,620.7592 L254.9197,629.1211 L245.9197,638.1211 L110.3823,638.1211 L110.3823,620.7592 " fill="#EEEEEE" style="stroke:#000000;stroke-width:1.35;"/><rect fill="none" height="196.8715" style="stroke:#000000;stroke-width:1.35;" width="673.7862" x="110.3823" y="620.7592"/><text fill="#000000" font-family="sans-serif" font-size="11.7" font-weight="bold" lengthAdjust="spacing" textLength="104.0375" x="123.8823" y="634.2847">checkM3Customer</text><polygon fill="#181818" points="740.6613,655.483,749.6613,659.083,740.6613,662.683,744.2613,659.083" style="stroke:#181818;stroke-width:0.9;"/><line style="stroke:#181818;stroke-width:0.9;" x1="143.4836" x2="746.0613" y1="659.083" y2="659.083"/><text fill="#000000" font-family="sans-serif" font-size="11.7" font-weight="bold" lengthAdjust="spacing" textLength="13.014" x="149.7836" y="654.3466">11</text><text fill="#000000" font-family="sans-serif" font-size="11.7" lengthAdjust="spacing" textLength="316.9283" x="166.3976" y="654.3466">SELECT OKSTAT FROM {0}.OCUSMA WHERE OKCUNO=:</text><text fill="#0000FF" font-family="sans-serif" font-size="11.7" lengthAdjust="spacing" textLength="84.5165" x="483.3259" y="654.3466">m3COCustomer</text><polygon fill="#181818" points="153.3836,683.6449,144.3836,687.2449,153.3836,690.8449,149.7836,687.2449" style="stroke:#181818;stroke-width:0.9;"/><line style="stroke:#181818;stroke-width:0.9;stroke-dasharray:2.0,2.0;" x1="147.9836" x2="746.0613" y1="687.2449" y2="687.2449"/><text fill="#000000" font-family="sans-serif" font-size="11.7" font-weight="bold" lengthAdjust="spacing" textLength="13.014" x="158.7836" y="682.5085">12</text><text fill="#000000" font-family="sans-serif" font-size="11.7" lengthAdjust="spacing" textLength="113.6351" x="175.3976" y="682.5085">resultSets["OKSTAT"]</text><line style="stroke:#181818;stroke-width:0.9;" x1="147.9836" x2="185.7836" y1="715.4068" y2="715.4068"/><line style="stroke:#181818;stroke-width:0.9;" x1="185.7836" x2="185.7836" y1="715.4068" y2="727.1068"/><line style="stroke:#181818;stroke-width:0.9;" x1="148.8836" x2="185.7836" y1="727.1068" y2="727.1068"/><polygon fill="#181818" points="157.8836,723.5068,148.8836,727.1068,157.8836,730.7068,154.2836,727.1068" style="stroke:#181818;stroke-width:0.9;"/><text fill="#000000" font-family="sans-serif" font-size="11.7" font-weight="bold" lengthAdjust="spacing" textLength="13.014" x="154.2836" y="710.6704">13</text><text fill="#000000" font-family="sans-serif" font-size="11.7" lengthAdjust="spacing" textLength="332.096" x="170.8976" y="710.6704">check all resultSets["OKSTAT"] is M3_CUST_VALID_STATUS (</text><text fill="#000000" font-family="sans-serif" font-size="11.7" font-weight="bold" lengthAdjust="spacing" textLength="13.014" x="502.9937" y="710.6704">20</text><text fill="#000000" font-family="sans-serif" font-size="11.7" lengthAdjust="spacing" textLength="3.8962" x="516.0076" y="710.6704">)</text><polygon fill="#181818" points="740.6613,778.6688,749.6613,782.2688,740.6613,785.8688,744.2613,782.2688" style="stroke:#181818;stroke-width:0.9;"/><line style="stroke:#181818;stroke-width:0.9;" x1="143.4836" x2="746.0613" y1="782.2688" y2="782.2688"/><text fill="#000000" font-family="sans-serif" font-size="11.7" font-weight="bold" lengthAdjust="spacing" textLength="13.014" x="149.7836" y="777.5323">14</text><text fill="#000000" font-family="sans-serif" font-size="11.7" lengthAdjust="spacing" textLength="336.4607" x="166.3976" y="777.5323">Check exist SELECT 1 FROM {0}.OBTYPE WHERE  BOCUNO=</text><text fill="#0000FF" font-family="sans-serif" font-size="11.7" lengthAdjust="spacing" textLength="84.5165" x="502.8583" y="777.5323">m3COCustomer</text><text fill="#000000" font-family="sans-serif" font-size="11.7" lengthAdjust="spacing" textLength="99.6442" x="590.6254" y="777.5323">AND BOBQLY=''A''</text><polygon fill="#181818" points="153.3836,806.8307,144.3836,810.4307,153.3836,814.0307,149.7836,810.4307" style="stroke:#181818;stroke-width:0.9;"/><line style="stroke:#181818;stroke-width:0.9;stroke-dasharray:2.0,2.0;" x1="147.9836" x2="746.0613" y1="810.4307" y2="810.4307"/><text fill="#000000" font-family="sans-serif" font-size="11.7" font-weight="bold" lengthAdjust="spacing" textLength="13.014" x="158.7836" y="805.6942">15</text><text fill="#000000" font-family="sans-serif" font-size="11.7" lengthAdjust="spacing" textLength="3.2506" x="175.3976" y="805.6942">&#160;</text><rect fill="#EEEEEE" height="2.7" style="stroke:#EEEEEE;stroke-width:0.9;" width="1333.7539" x="0" y="843.4116"/><line style="stroke:#000000;stroke-width:0.9;" x1="0" x2="1333.7539" y1="843.4116" y2="843.4116"/><line style="stroke:#000000;stroke-width:0.9;" x1="0" x2="1333.7539" y1="846.1116" y2="846.1116"/><rect fill="#EEEEEE" height="22.7619" style="stroke:#000000;stroke-width:1.8;" width="325.2722" x="504.2408" y="832.9307"/><text fill="#000000" font-family="sans-serif" font-size="11.7" font-weight="bold" lengthAdjust="spacing" textLength="309.4216" x="509.6408" y="849.1562">Download file order &amp; submit job to background worker</text><path d="M110.3823,870.9926 L388.2357,870.9926 L388.2357,879.3545 L379.2357,888.3545 L110.3823,888.3545 L110.3823,870.9926 " fill="#EEEEEE" style="stroke:#000000;stroke-width:1.35;"/><rect fill="none" height="153.4096" style="stroke:#000000;stroke-width:1.35;" width="1214.3716" x="110.3823" y="870.9926"/><text fill="#000000" font-family="sans-serif" font-size="11.7" font-weight="bold" lengthAdjust="spacing" textLength="237.3535" x="123.8823" y="884.5181">Get file name and create file in local server</text><polygon fill="#181818" points="1260.1433,905.7164,1269.1433,909.3164,1260.1433,912.9164,1263.7433,909.3164" style="stroke:#181818;stroke-width:0.9;"/><line style="stroke:#181818;stroke-width:0.9;" x1="143.4836" x2="1265.5433" y1="909.3164" y2="909.3164"/><text fill="#000000" font-family="sans-serif" font-size="11.7" font-weight="bold" lengthAdjust="spacing" textLength="13.014" x="149.7836" y="904.58">16</text><text fill="#000000" font-family="sans-serif" font-size="11.7" lengthAdjust="spacing" textLength="274.95" x="166.3976" y="904.58">find sub-folders in folder "facility/brandCode/m3cono"</text><polygon fill="#181818" points="153.3836,933.8783,144.3836,937.4783,153.3836,941.0783,149.7836,937.4783" style="stroke:#181818;stroke-width:0.9;"/><line style="stroke:#181818;stroke-width:0.9;stroke-dasharray:2.0,2.0;" x1="147.9836" x2="1274.5433" y1="937.4783" y2="937.4783"/><text fill="#000000" font-family="sans-serif" font-size="11.7" font-weight="bold" lengthAdjust="spacing" textLength="13.014" x="158.7836" y="932.7419">17</text><text fill="#000000" font-family="sans-serif" font-size="11.7" lengthAdjust="spacing" textLength="57.8773" x="175.3976" y="932.7419">sub-folders</text><line style="stroke:#181818;stroke-width:0.9;" x1="143.4836" x2="181.2836" y1="965.6402" y2="965.6402"/><line style="stroke:#181818;stroke-width:0.9;" x1="181.2836" x2="181.2836" y1="965.6402" y2="977.3402"/><line style="stroke:#181818;stroke-width:0.9;" x1="144.3836" x2="181.2836" y1="977.3402" y2="977.3402"/><polygon fill="#181818" points="153.3836,973.7402,144.3836,977.3402,153.3836,980.9402,149.7836,977.3402" style="stroke:#181818;stroke-width:0.9;"/><text fill="#000000" font-family="sans-serif" font-size="11.7" font-weight="bold" lengthAdjust="spacing" textLength="13.014" x="149.7836" y="960.9038">18</text><text fill="#000000" font-family="sans-serif" font-size="11.7" lengthAdjust="spacing" textLength="169.073" x="166.3976" y="960.9038">create sub-folders in local server</text><line style="stroke:#181818;stroke-width:0.9;" x1="143.4836" x2="181.2836" y1="1005.5021" y2="1005.5021"/><line style="stroke:#181818;stroke-width:0.9;" x1="181.2836" x2="181.2836" y1="1005.5021" y2="1017.2021"/><line style="stroke:#181818;stroke-width:0.9;" x1="144.3836" x2="181.2836" y1="1017.2021" y2="1017.2021"/><polygon fill="#181818" points="153.3836,1013.6021,144.3836,1017.2021,153.3836,1020.8021,149.7836,1017.2021" style="stroke:#181818;stroke-width:0.9;"/><text fill="#000000" font-family="sans-serif" font-size="11.7" font-weight="bold" lengthAdjust="spacing" textLength="13.014" x="149.7836" y="1000.7657">19</text><text fill="#000000" font-family="sans-serif" font-size="11.7" font-weight="bold" lengthAdjust="spacing" text-decoration="underline" textLength="91.6519" x="166.3976" y="1000.7657">productTypeList</text><text fill="#000000" font-family="sans-serif" font-size="11.7" lengthAdjust="spacing" textLength="287.387" x="261.3001" y="1000.7657">= all sub-folders in folder "facility/brandCode/m3cono/${</text><text fill="#CD853F" font-family="sans-serif" font-size="11.7" lengthAdjust="spacing" textLength="87.1273" x="548.6871" y="1000.7657">folderTimestamp</text><text fill="#000000" font-family="sans-serif" font-size="11.7" lengthAdjust="spacing" textLength="8.0609" x="635.8144" y="1000.7657">}"</text><path d="M101.3823,1037.0021 L166.5734,1037.0021 L166.5734,1045.3641 L157.5734,1054.3641 L101.3823,1054.3641 L101.3823,1037.0021 " fill="#EEEEEE" style="stroke:#000000;stroke-width:1.35;"/><rect fill="none" height="390.2906" style="stroke:#000000;stroke-width:1.35;" width="1223.3716" x="101.3823" y="1037.0021"/><text fill="#000000" font-family="sans-serif" font-size="11.7" font-weight="bold" lengthAdjust="spacing" textLength="24.6911" x="114.8823" y="1050.5276">loop</text><text fill="#000000" font-family="sans-serif" font-size="9.9" font-weight="bold" lengthAdjust="spacing" textLength="85.2425" x="180.0734" y="1049.4853">[for productType :</text><text fill="#000000" font-family="sans-serif" font-size="9.9" font-weight="bold" lengthAdjust="spacing" text-decoration="underline" textLength="77.5516" x="268.0664" y="1049.4853">productTypeList</text><text fill="#000000" font-family="sans-serif" font-size="9.9" font-weight="bold" lengthAdjust="spacing" textLength="3.2968" x="345.618" y="1049.4853">]</text><polygon fill="#181818" points="1178.3676,1133.9736,1187.3676,1137.5736,1178.3676,1141.1736,1181.9676,1137.5736" style="stroke:#181818;stroke-width:0.9;"/><line style="stroke:#181818;stroke-width:0.9;" x1="143.4836" x2="1183.7676" y1="1137.5736" y2="1137.5736"/><text fill="#000000" font-family="sans-serif" font-size="11.7" font-weight="bold" lengthAdjust="spacing" textLength="13.014" x="149.7836" y="1101.7134">20</text><text fill="#000000" font-family="sans-serif" font-size="11.7" lengthAdjust="spacing" textLength="204.1501" x="166.3976" y="1070.5896">SELECT * FROM TP_PO_FIELD_MAP</text><text fill="#000000" font-family="sans-serif" font-size="11.7" lengthAdjust="spacing" textLength="204.4986" x="169.6482" y="1086.1515">WHERE programType = :programCode</text><text fill="#000000" font-family="sans-serif" font-size="11.7" lengthAdjust="spacing" textLength="177.2367" x="166.3976" y="1101.7134">map.product.code = :productCode</text><text fill="#000000" font-family="sans-serif" font-size="11.7" lengthAdjust="spacing" textLength="159.0354" x="166.3976" y="1117.2753">map.brand.code = :brandCode</text><text fill="#000000" font-family="sans-serif" font-size="11.7" lengthAdjust="spacing" textLength="104.3574" x="166.3976" y="1132.8372">map.facility =:facility</text><polygon fill="#181818" points="153.3836,1162.1355,144.3836,1165.7355,153.3836,1169.3355,149.7836,1165.7355" style="stroke:#181818;stroke-width:0.9;"/><line style="stroke:#181818;stroke-width:0.9;stroke-dasharray:2.0,2.0;" x1="147.9836" x2="1192.7676" y1="1165.7355" y2="1165.7355"/><text fill="#000000" font-family="sans-serif" font-size="11.7" font-weight="bold" lengthAdjust="spacing" textLength="13.014" x="158.7836" y="1160.9991">21</text><text fill="#000000" font-family="sans-serif" font-size="11.7" font-weight="bold" lengthAdjust="spacing" textLength="38.3678" x="175.3976" y="1160.9991">header</text><polygon fill="#181818" points="1178.3676,1190.2975,1187.3676,1193.8975,1178.3676,1197.4975,1181.9676,1193.8975" style="stroke:#181818;stroke-width:0.9;"/><line style="stroke:#181818;stroke-width:0.9;" x1="143.4836" x2="1183.7676" y1="1193.8975" y2="1193.8975"/><text fill="#000000" font-family="sans-serif" font-size="11.7" font-weight="bold" lengthAdjust="spacing" textLength="13.014" x="149.7836" y="1189.161">22</text><text fill="#000000" font-family="sans-serif" font-size="11.7" lengthAdjust="spacing" textLength="1011.97" x="166.3976" y="1189.161">select aggr from MTMAggregate aggr where aggr.id.facility =:facility and aggr.id.programType = :programCode and aggr.id.productTypeCode = :productCode and aggr.id.brandCode = :brandCode</text><polygon fill="#181818" points="153.3836,1218.4594,144.3836,1222.0594,153.3836,1225.6594,149.7836,1222.0594" style="stroke:#181818;stroke-width:0.9;"/><line style="stroke:#181818;stroke-width:0.9;stroke-dasharray:2.0,2.0;" x1="147.9836" x2="1192.7676" y1="1222.0594" y2="1222.0594"/><text fill="#000000" font-family="sans-serif" font-size="11.7" font-weight="bold" lengthAdjust="spacing" textLength="13.014" x="158.7836" y="1217.3229">23</text><text fill="#000000" font-family="sans-serif" font-size="11.7" font-weight="bold" lengthAdjust="spacing" textLength="55.9178" x="175.3976" y="1217.3229">aggregate</text><polygon fill="#181818" points="1260.1433,1262.1832,1269.1433,1265.7832,1260.1433,1269.3832,1263.7433,1265.7832" style="stroke:#181818;stroke-width:0.9;"/><line style="stroke:#181818;stroke-width:0.9;" x1="143.4836" x2="1265.5433" y1="1265.7832" y2="1265.7832"/><text fill="#000000" font-family="sans-serif" font-size="11.7" font-weight="bold" lengthAdjust="spacing" textLength="13.014" x="149.7836" y="1253.2658">24</text><text fill="#000000" font-family="sans-serif" font-size="11.7" lengthAdjust="spacing" textLength="299.0127" x="166.3976" y="1245.4849">download folder "facility/brandCode/m3cono" in file server</text><text fill="#000000" font-family="sans-serif" font-size="11.7" lengthAdjust="spacing" textLength="37.0709" x="169.6482" y="1261.0468">to local</text><polygon fill="#181818" points="153.3836,1290.3451,144.3836,1293.9451,153.3836,1297.5451,149.7836,1293.9451" style="stroke:#181818;stroke-width:0.9;"/><line style="stroke:#181818;stroke-width:0.9;stroke-dasharray:2.0,2.0;" x1="147.9836" x2="1274.5433" y1="1293.9451" y2="1293.9451"/><text fill="#000000" font-family="sans-serif" font-size="11.7" font-weight="bold" lengthAdjust="spacing" textLength="13.014" x="158.7836" y="1289.2087">25</text><text fill="#000000" font-family="sans-serif" font-size="11.7" font-weight="bold" lengthAdjust="spacing" textLength="92.3203" x="175.3976" y="1289.2087">orderFileFolders</text><path d="M110.3823,1307.4451 L851.0884,1307.4451 L851.0884,1315.807 L842.0884,1324.807 L110.3823,1324.807 L110.3823,1307.4451 " fill="#EEEEEE" style="stroke:#000000;stroke-width:1.35;"/><rect fill="none" height="113.5477" style="stroke:#000000;stroke-width:1.35;" width="1124.7504" x="110.3823" y="1307.4451"/><text fill="#000000" font-family="sans-serif" font-size="11.7" font-weight="bold" lengthAdjust="spacing" textLength="424.5306" x="123.8823" y="1320.9706">submitMTMCOMaintenanceJob(header, aggregate, orderFileFolders, facility,</text><text fill="#A52A2A" font-family="sans-serif" font-size="11.7" font-weight="bold" lengthAdjust="spacing" textLength="48.1025" x="551.6635" y="1320.9706">m3CoNo</text><text fill="#000000" font-family="sans-serif" font-size="11.7" font-weight="bold" lengthAdjust="spacing" textLength="3.2506" x="599.7661" y="1320.9706">,</text><text fill="#0000FF" font-family="sans-serif" font-size="11.7" font-weight="bold" lengthAdjust="spacing" textLength="89.0697" x="606.2673" y="1320.9706">m3COCustomer</text><text fill="#000000" font-family="sans-serif" font-size="11.7" font-weight="bold" lengthAdjust="spacing" textLength="128.7514" x="695.337" y="1320.9706">, byUser, isSystemJob)</text><polygon fill="#181818" points="1178.3676,1342.1689,1187.3676,1345.7689,1178.3676,1349.3689,1181.9676,1345.7689" style="stroke:#181818;stroke-width:0.9;"/><line style="stroke:#181818;stroke-width:0.9;" x1="143.4836" x2="1183.7676" y1="1345.7689" y2="1345.7689"/><text fill="#000000" font-family="sans-serif" font-size="11.7" font-weight="bold" lengthAdjust="spacing" textLength="13.014" x="149.7836" y="1341.0325">26</text><text fill="#000000" font-family="sans-serif" font-size="11.7" lengthAdjust="spacing" textLength="74.1019" x="166.3976" y="1341.0325">INSERT INTO</text><text fill="#000000" font-family="sans-serif" font-size="11.7" font-weight="bold" lengthAdjust="spacing" textLength="62.4133" x="243.7501" y="1341.0325">TC_M3_CO</text><polygon fill="#181818" points="153.3836,1370.3309,144.3836,1373.9309,153.3836,1377.5309,149.7836,1373.9309" style="stroke:#181818;stroke-width:0.9;"/><line style="stroke:#181818;stroke-width:0.9;stroke-dasharray:2.0,2.0;" x1="147.9836" x2="1192.7676" y1="1373.9309" y2="1373.9309"/><text fill="#000000" font-family="sans-serif" font-size="11.7" font-weight="bold" lengthAdjust="spacing" textLength="13.014" x="158.7836" y="1369.1944">27</text><text fill="#000000" font-family="sans-serif" font-size="11.7" lengthAdjust="spacing" textLength="25.3709" x="175.3976" y="1369.1944">jobId</text><line style="stroke:#181818;stroke-width:0.9;" x1="143.4836" x2="181.2836" y1="1402.0928" y2="1402.0928"/><line style="stroke:#181818;stroke-width:0.9;" x1="181.2836" x2="181.2836" y1="1402.0928" y2="1413.7928"/><line style="stroke:#181818;stroke-width:0.9;" x1="144.3836" x2="181.2836" y1="1413.7928" y2="1413.7928"/><polygon fill="#181818" points="153.3836,1410.1928,144.3836,1413.7928,153.3836,1417.3928,149.7836,1413.7928" style="stroke:#181818;stroke-width:0.9;"/><text fill="#000000" font-family="sans-serif" font-size="11.7" font-weight="bold" lengthAdjust="spacing" textLength="13.014" x="149.7836" y="1397.3563">28</text><text fill="#000000" font-family="sans-serif" font-size="11.7" font-style="italic" font-weight="bold" lengthAdjust="spacing" textLength="257.7599" x="166.3976" y="1397.3563">create jobDetail = [jobId, productType, fileList]</text><line style="stroke:#181818;stroke-width:0.9;" x1="143.4836" x2="181.2836" y1="1454.5547" y2="1454.5547"/><line style="stroke:#181818;stroke-width:0.9;" x1="181.2836" x2="181.2836" y1="1454.5547" y2="1466.2547"/><line style="stroke:#181818;stroke-width:0.9;" x1="144.3836" x2="181.2836" y1="1466.2547" y2="1466.2547"/><polygon fill="#181818" points="153.3836,1462.6547,144.3836,1466.2547,153.3836,1469.8547,149.7836,1466.2547" style="stroke:#181818;stroke-width:0.9;"/><text fill="#000000" font-family="sans-serif" font-size="11.7" font-weight="bold" lengthAdjust="spacing" textLength="13.014" x="149.7836" y="1449.8183">29</text><text fill="#000000" font-family="sans-serif" font-size="11.7" lengthAdjust="spacing" textLength="219.1408" x="166.3976" y="1449.8183">Submit job to job worker (Asynchronously)</text><text fill="#000000" font-family="sans-serif" font-size="9.9" lengthAdjust="spacing" textLength="171.1569" x="576.2487" y="1496.7378">Run asynchronously in the background</text><text fill="#000000" font-family="sans-serif" font-size="9.9" font-weight="bold" lengthAdjust="spacing" textLength="88.022" x="750.1562" y="1496.7378">See in job diagram</text><text fill="#000000" font-family="sans-serif" font-size="9.9" lengthAdjust="spacing" textLength="2.7505" x="838.1782" y="1496.7378">&#160;</text><!--SRC=[dLPjRzis4FwkNt78XYKL53kjWGtmwW2oR2zkRIkpb0P14WYqHDjQ95AZg6P6qV- -8oKvikCatGga5idZlJntznoFrr9cURVTpXB2P94chP2dxPp-NL0MqjCe9Yj1KiF8Y91n66Se18vZ0yaX30dybCIhjLm9IfaH4KaM9ASmxGI3lf98Ez7YQNlC91MC97Yc3kDgQOGyIMWeOyvo6CK93JmglbAXP9QuD0nII4vGu2kH53ZJQrQa2oeCu_HS-T65l5YaiVp45tSCyDyfB4aO9x7SrEk582noU4JhZOzebulkGl17Tfvs73xZ7zjwxtnF9AEYE5_o9AB2ZrEQIv9c-wABpLLEHRsASs-JIvgYFtlUBvU6qUl15vB420p6Z3XaXGI54lHwXg5GhOEgf2WmbADf9ZUG4Rd6_p0d-HrxXanrkOQs2-6QXWz0_ubp2PH9n0DkQsGiK56dcD9D5zwVdTtZFJ1DVnfW0aUsCvwC_HlJD0ILXVX1tLkKTvJrv_PiyAJ9M0bUPENzQSTnPznGi3qpi8nPXCKqglpztm4evQNfRTAJWcBEQyrrCfjkgDhjWZUS31qVNDkvchaM_hfppxVGYFwQc2QCvkuKNFTYQ0_0Xa_kU0RJiNzzCO4-k3EmMwwD2nTwq6zDh_Nd7Rk-6Cw7MjjCdNHVTwlbYdWLioqE2APMfaBiTL-fuz-R0UbsNNEPnUoXJbuPbu8DyxQYSFlXp8BVVht7Eeuema_t07DSfyWbJwceJQ3tJs1eSn7TLYIQD2YBzXDUgNWPxS-UR_ibij_ElhTSvygRsb21zbcvtEk-vLWpwuBcHI8zAlFRerBvqVrRq90aENWFUriH7Bha1r_ioNWGgFqh3qvCyyEPQRux1CApI9r6xrHHlsy4tFTlBeTLmD1tTSHlPaANXTl_StBJEpwsZuyR29HPGDuPO94ad4IQMO4Bf3JufI9F-8ilG79OaF119GoRxv6B1vHGl5Icy0ygowkCf1Imro4KL4MfDx6E4XwI17BDuCsmrNdLqMZjj6HJDGIW_8IZkglRMmvffvsGCtxKJ6NZijv-ngwxQUtM_kqPVSbDVIK8J3CJF2f2wMyoEi4acMOGOAchelYlxhT__lO3S-JxKPcZVKPFEC-QKnRj2MWu1o-wUvXJgsAhUCk_32xTO3GUJWR1rBv4PggA3lMfkQyj83zLot9yfYHhLVRmiH3L0chz9A1Hs1utXgywhB62NhV-RERODDUK84X8A8U3oAbwC01PhGGi1KzXwazjND2LGarlFwwfA3zRSNJ8e2xU-lpbSFV5QfITvu7lY6uZtWb_DqfIkxmNQDahqRPLtsmGNOUg0Sk2nYnY6-iItpMe-rqziKPb_TPsozukMG2XTDmfKM0pWaz0VCASbEcmOEkm1VkgB7YQogzC9ElDWM9LJoch-OWgIVLWBOndtd3kuu_lgjdlgDdlkDKiQaIFv3QEZEtkGTxO9u9sspGh_i3h0of9d60-RxKkgzc6biPVjTwzQRRRMflgP_NNrEZjCAtwgIZsnCutB5mBJ6UH9vjtXj5gjM1UC7m6DmzKgkMQDadQD3sgkLUfgnxi-331-yQ_]--></g></svg>